<svg xmlns="http://www.w3.org/2000/svg" xmlns:xlink="http://www.w3.org/1999/xlink" width="1250" zoomAndPan="magnify" viewBox="0 0 937.5 374.999991" height="500" preserveAspectRatio="xMidYMid meet" version="1.0"><defs><filter x="0%" y="0%" width="100%" height="100%" id="id1"><feColorMatrix values="0 0 0 0 1 0 0 0 0 1 0 0 0 0 1 0 0 0 1 0" color-interpolation-filters="sRGB"/></filter><g/><mask id="id2"><g filter="url(#id1)"><rect x="-93.75" width="1125" fill="#000000" y="-37.499999" height="449.999989" fill-opacity="0.6667"/></g></mask><clipPath id="id3"><path d="M 1.03125 0.804688 L 46.03125 0.804688 L 46.03125 43.554688 L 1.03125 43.554688 Z M 1.03125 0.804688 " clip-rule="nonzero"/></clipPath><clipPath id="id4"><rect x="0" width="47" y="0" height="45"/></clipPath><mask id="id5"><g filter="url(#id1)"><rect x="-93.75" width="1125" fill="#000000" y="-37.499999" height="449.999989" fill-opacity="0.949"/></g></mask><clipPath id="id6"><path d="M 0.273438 9 L 8 9 L 8 24 L 0.273438 24 Z M 0.273438 9 " clip-rule="nonzero"/></clipPath><clipPath id="id7"><rect x="0" width="169" y="0" height="33"/></clipPath><mask id="id8"><g filter="url(#id1)"><rect x="-93.75" width="1125" fill="#000000" y="-37.499999" height="449.999989" fill-opacity="0.949"/></g></mask><clipPath id="id9"><rect x="0" width="177" y="0" height="33"/></clipPath><mask id="id10"><g filter="url(#id1)"><rect x="-93.75" width="1125" fill="#000000" y="-37.499999" height="449.999989" fill-opacity="0.949"/></g></mask><clipPath id="id11"><path d="M 0.613281 11 L 28 11 L 28 38.273438 L 0.613281 38.273438 Z M 0.613281 11 " clip-rule="nonzero"/></clipPath><clipPath id="id12"><path d="M 33 1 L 38.230469 1 L 38.230469 14 L 33 14 Z M 33 1 " clip-rule="nonzero"/></clipPath><clipPath id="id13"><path d="M 26 0.773438 L 34 0.773438 L 34 8 L 26 8 Z M 26 0.773438 " clip-rule="nonzero"/></clipPath><clipPath id="id14"><rect x="0" width="39" y="0" height="39"/></clipPath><mask id="id15"><g filter="url(#id1)"><rect x="-93.75" width="1125" fill="#000000" y="-37.499999" height="449.999989" fill-opacity="0.949"/></g></mask><clipPath id="id16"><path d="M 4 4.320312 L 32.761719 4.320312 L 32.761719 38.804688 L 4 38.804688 Z M 4 4.320312 " clip-rule="nonzero"/></clipPath><clipPath id="id17"><path d="M 6 0.585938 L 11 0.585938 L 11 18 L 6 18 Z M 6 0.585938 " clip-rule="nonzero"/></clipPath><clipPath id="id18"><path d="M 24 0.585938 L 29 0.585938 L 29 18 L 24 18 Z M 24 0.585938 " clip-rule="nonzero"/></clipPath><clipPath id="id19"><path d="M 0.136719 0.585938 L 5 0.585938 L 5 18 L 0.136719 18 Z M 0.136719 0.585938 " clip-rule="nonzero"/></clipPath><clipPath id="id20"><path d="M 29.816406 0.699219 L 34.480469 0.699219 L 34.480469 17.195312 L 29.816406 17.195312 Z M 29.816406 0.699219 " clip-rule="nonzero"/></clipPath><clipPath id="id21"><rect x="0" width="35" y="0" height="39"/></clipPath><clipPath id="id22"><path d="M 574.496094 180 L 599 180 L 599 212.890625 L 574.496094 212.890625 Z M 574.496094 180 " clip-rule="nonzero"/></clipPath><clipPath id="id23"><path d="M 599 193 L 605.246094 193 L 605.246094 200 L 599 200 Z M 599 193 " clip-rule="nonzero"/></clipPath><mask id="id24"><g filter="url(#id1)"><rect x="-93.75" width="1125" fill="#000000" y="-37.499999" height="449.999989" fill-opacity="0.949"/></g></mask><clipPath id="id25"><rect x="0" width="149" y="0" height="32"/></clipPath><mask id="id26"><g filter="url(#id1)"><rect x="-93.75" width="1125" fill="#000000" y="-37.499999" height="449.999989" fill-opacity="0.949"/></g></mask><clipPath id="id27"><rect x="0" width="58" y="0" height="34"/></clipPath><mask id="id28"><g filter="url(#id1)"><rect x="-93.75" width="1125" fill="#000000" y="-37.499999" height="449.999989" fill-opacity="0.949"/></g></mask><clipPath id="id29"><path d="M 0.621094 14 L 14 14 L 14 36 L 0.621094 36 Z M 0.621094 14 " clip-rule="nonzero"/></clipPath><clipPath id="id30"><rect x="0" width="131" y="0" height="49"/></clipPath></defs><g mask="url(#id2)"><g transform="matrix(1, 0, 0, 1, 766, 42)"><g clip-path="url(#id4)"><g clip-path="url(#id3)"><path fill="#ffffff" d="M 6.257812 0.816406 L 3.984375 3.097656 L 1.695312 0.816406 L 1.046875 1.460938 L 3.335938 3.726562 L 1.046875 6.007812 L 1.695312 6.652344 L 3.984375 4.371094 L 6.273438 6.652344 L 6.917969 6.007812 L 4.613281 3.726562 L 6.902344 1.445312 Z M 19.292969 0.816406 L 17.003906 3.097656 L 14.734375 0.816406 L 14.085938 1.460938 L 16.375 3.742188 L 14.101562 6.007812 L 14.75 6.652344 L 17.019531 4.371094 L 19.308594 6.652344 L 19.957031 6.007812 L 17.667969 3.726562 L 19.957031 1.445312 Z M 32.347656 0.816406 L 30.058594 3.097656 L 27.769531 0.816406 L 27.125 1.460938 L 29.410156 3.742188 L 27.125 6.023438 L 27.769531 6.667969 L 30.058594 4.371094 L 32.347656 6.652344 L 32.996094 6.007812 L 30.707031 3.726562 L 32.996094 1.445312 Z M 46.015625 1.460938 L 45.371094 0.816406 L 43.082031 3.097656 L 40.824219 0.816406 L 40.175781 1.460938 L 42.464844 3.742188 L 40.175781 6.023438 L 40.824219 6.667969 L 43.097656 4.371094 L 45.386719 6.652344 L 46.03125 6.007812 L 43.742188 3.726562 Z M 6.257812 13.105469 L 3.984375 15.386719 L 1.695312 13.105469 L 1.046875 13.75 L 3.335938 16.019531 L 1.046875 18.300781 L 1.695312 18.945312 L 3.984375 16.664062 L 6.273438 18.945312 L 6.917969 18.300781 L 4.613281 16.019531 L 6.902344 13.734375 Z M 19.292969 13.105469 L 17.019531 15.386719 L 14.734375 13.105469 L 14.085938 13.75 L 16.375 16.035156 L 14.085938 18.316406 L 14.734375 18.960938 L 17.019531 16.679688 L 19.308594 18.960938 L 19.957031 18.316406 L 17.652344 16.019531 L 19.941406 13.734375 Z M 32.347656 13.105469 L 30.058594 15.386719 L 27.769531 13.105469 L 27.125 13.75 L 29.410156 16.035156 L 27.125 18.316406 L 27.769531 18.960938 L 30.058594 16.679688 L 32.347656 18.960938 L 32.996094 18.316406 L 30.707031 16.019531 L 32.996094 13.734375 Z M 45.386719 13.105469 L 43.097656 15.386719 L 40.808594 13.105469 L 40.160156 13.75 L 42.449219 16.035156 L 40.160156 18.316406 L 40.808594 18.960938 L 43.097656 16.679688 L 45.386719 18.960938 L 46.03125 18.316406 L 43.742188 16.019531 L 46.03125 13.734375 Z M 6.257812 25.398438 L 3.96875 27.679688 L 1.679688 25.398438 L 1.03125 26.042969 L 3.335938 28.324219 L 1.046875 30.589844 L 1.695312 31.234375 L 3.984375 28.953125 L 6.273438 31.234375 L 6.917969 30.589844 L 4.632812 28.308594 L 6.917969 26.027344 Z M 19.292969 25.398438 L 17.003906 27.679688 L 14.71875 25.398438 L 14.070312 26.042969 L 16.359375 28.324219 L 14.070312 30.605469 L 14.71875 31.25 L 17.003906 28.96875 L 19.292969 31.25 L 19.941406 30.605469 L 17.652344 28.324219 L 19.941406 26.042969 Z M 32.347656 25.398438 L 30.058594 27.679688 L 27.769531 25.398438 L 27.125 26.042969 L 29.410156 28.324219 L 27.125 30.605469 L 27.769531 31.25 L 30.058594 28.96875 L 32.347656 31.25 L 32.996094 30.605469 L 30.707031 28.324219 L 32.996094 26.042969 Z M 45.386719 25.398438 L 43.097656 27.679688 L 40.808594 25.398438 L 40.160156 26.042969 L 42.449219 28.324219 L 40.160156 30.605469 L 40.808594 31.25 L 43.097656 28.96875 L 45.386719 31.25 L 46.03125 30.605469 L 43.742188 28.308594 L 46.03125 26.027344 Z M 6.257812 37.6875 L 3.96875 39.96875 L 1.679688 37.6875 L 1.03125 38.332031 L 3.335938 40.613281 L 1.0625 42.878906 L 1.710938 43.527344 L 4 41.246094 L 6.289062 43.527344 L 6.933594 42.878906 L 4.648438 40.597656 L 6.933594 38.316406 Z M 19.308594 37.6875 L 17.019531 39.96875 L 14.734375 37.6875 L 14.085938 38.332031 L 16.375 40.613281 L 14.085938 42.898438 L 14.734375 43.542969 L 17.019531 41.261719 L 19.308594 43.542969 L 19.957031 42.898438 L 17.667969 40.613281 L 19.957031 38.332031 Z M 32.347656 37.6875 L 30.058594 39.96875 L 27.769531 37.6875 L 27.125 38.332031 L 29.410156 40.613281 L 27.125 42.898438 L 27.769531 43.542969 L 30.058594 41.261719 L 32.347656 43.542969 L 32.996094 42.898438 L 30.707031 40.613281 L 32.996094 38.332031 Z M 45.386719 37.6875 L 43.097656 39.96875 L 40.808594 37.6875 L 40.160156 38.332031 L 42.449219 40.613281 L 40.160156 42.898438 L 40.808594 43.542969 L 43.097656 41.261719 L 45.386719 43.542969 L 46.03125 42.898438 L 43.742188 40.597656 L 46.03125 38.316406 Z M 45.386719 37.6875 " fill-opacity="1" fill-rule="nonzero"/></g></g></g></g><g mask="url(#id5)"><g transform="matrix(1, 0, 0, 1, 609, 128)"><g clip-path="url(#id7)"><g clip-path="url(#id6)"><g fill="#ffffff" fill-opacity="1"><g transform="translate(0.373354, 23.440036)"><g><path d="M 2.28125 0 L 2.28125 -11.515625 L 0.140625 -11.515625 L 0.140625 -13.734375 L 6.828125 -13.734375 L 6.828125 -11.515625 L 4.6875 -11.515625 L 4.6875 0 Z M 2.28125 0 "/></g></g></g></g><g fill="#ffffff" fill-opacity="1"><g transform="translate(7.3404, 23.440036)"><g><path d="M 0.859375 0 L 0.859375 -13.734375 L 6.328125 -13.734375 L 6.328125 -11.5625 L 3.28125 -11.5625 L 3.28125 -8.03125 L 5.953125 -8.03125 L 5.953125 -5.84375 L 3.28125 -5.84375 L 3.28125 -2.171875 L 6.328125 -2.171875 L 6.328125 0 Z M 0.859375 0 "/></g></g></g><g fill="#ffffff" fill-opacity="1"><g transform="translate(14.227588, 23.440036)"><g><path d="M 6.03125 -0.15625 C 5.800781 -0.0625 5.507812 0.0078125 5.15625 0.0625 C 4.800781 0.125 4.472656 0.15625 4.171875 0.15625 C 3.117188 0.15625 2.347656 -0.046875 1.859375 -0.453125 C 1.367188 -0.859375 1.039062 -1.535156 0.875 -2.484375 C 0.71875 -3.429688 0.640625 -4.894531 0.640625 -6.875 C 0.640625 -8.8125 0.722656 -10.265625 0.890625 -11.234375 C 1.054688 -12.203125 1.382812 -12.882812 1.875 -13.28125 C 2.363281 -13.6875 3.128906 -13.890625 4.171875 -13.890625 C 4.535156 -13.890625 4.882812 -13.863281 5.21875 -13.8125 C 5.5625 -13.757812 5.816406 -13.6875 5.984375 -13.59375 L 5.984375 -11.578125 C 5.472656 -11.671875 5.015625 -11.71875 4.609375 -11.71875 C 4.085938 -11.71875 3.722656 -11.617188 3.515625 -11.421875 C 3.316406 -11.234375 3.1875 -10.828125 3.125 -10.203125 C 3.0625 -9.578125 3.03125 -8.46875 3.03125 -6.875 C 3.03125 -5.269531 3.0625 -4.15625 3.125 -3.53125 C 3.1875 -2.90625 3.316406 -2.492188 3.515625 -2.296875 C 3.722656 -2.109375 4.085938 -2.015625 4.609375 -2.015625 C 5.117188 -2.015625 5.59375 -2.0625 6.03125 -2.15625 Z M 6.03125 -0.15625 "/></g></g></g><g fill="#ffffff" fill-opacity="1"><g transform="translate(20.675593, 23.440036)"><g><path d="M 5.765625 0 L 3.234375 -7.75 L 3.15625 -7.75 L 3.15625 0 L 0.859375 0 L 0.859375 -13.734375 L 3.140625 -13.734375 L 5.515625 -6.53125 L 5.625 -6.53125 L 5.625 -13.734375 L 7.90625 -13.734375 L 7.90625 0 Z M 5.765625 0 "/></g></g></g><g fill="#ffffff" fill-opacity="1"><g transform="translate(29.439293, 23.440036)"><g><path d="M 4.21875 0.15625 C 3.050781 0.15625 2.222656 -0.0390625 1.734375 -0.4375 C 1.253906 -0.832031 0.953125 -1.476562 0.828125 -2.375 C 0.703125 -3.28125 0.640625 -4.78125 0.640625 -6.875 C 0.640625 -8.957031 0.703125 -10.445312 0.828125 -11.34375 C 0.953125 -12.25 1.253906 -12.898438 1.734375 -13.296875 C 2.222656 -13.691406 3.050781 -13.890625 4.21875 -13.890625 C 5.375 -13.890625 6.195312 -13.691406 6.6875 -13.296875 C 7.175781 -12.898438 7.484375 -12.25 7.609375 -11.34375 C 7.742188 -10.445312 7.8125 -8.957031 7.8125 -6.875 C 7.8125 -4.78125 7.742188 -3.28125 7.609375 -2.375 C 7.484375 -1.476562 7.175781 -0.832031 6.6875 -0.4375 C 6.195312 -0.0390625 5.375 0.15625 4.21875 0.15625 Z M 4.21875 -2.015625 C 4.613281 -2.015625 4.882812 -2.09375 5.03125 -2.25 C 5.175781 -2.414062 5.269531 -2.8125 5.3125 -3.4375 C 5.363281 -4.0625 5.390625 -5.207031 5.390625 -6.875 C 5.390625 -8.53125 5.363281 -9.671875 5.3125 -10.296875 C 5.269531 -10.929688 5.175781 -11.328125 5.03125 -11.484375 C 4.882812 -11.640625 4.613281 -11.71875 4.21875 -11.71875 C 3.8125 -11.71875 3.535156 -11.640625 3.390625 -11.484375 C 3.253906 -11.328125 3.160156 -10.929688 3.109375 -10.296875 C 3.054688 -9.660156 3.03125 -8.519531 3.03125 -6.875 C 3.03125 -5.21875 3.054688 -4.070312 3.109375 -3.4375 C 3.160156 -2.8125 3.253906 -2.414062 3.390625 -2.25 C 3.535156 -2.09375 3.8125 -2.015625 4.21875 -2.015625 Z M 4.21875 -2.015625 "/></g></g></g><g fill="#ffffff" fill-opacity="1"><g transform="translate(37.883592, 23.440036)"><g><path d="M 0.859375 0 L 0.859375 -13.734375 L 3.28125 -13.734375 L 3.28125 -2.21875 L 6.03125 -2.21875 L 6.03125 0 Z M 0.859375 0 "/></g></g></g><g fill="#ffffff" fill-opacity="1"><g transform="translate(44.092044, 23.440036)"><g><path d="M 4.21875 0.15625 C 3.050781 0.15625 2.222656 -0.0390625 1.734375 -0.4375 C 1.253906 -0.832031 0.953125 -1.476562 0.828125 -2.375 C 0.703125 -3.28125 0.640625 -4.78125 0.640625 -6.875 C 0.640625 -8.957031 0.703125 -10.445312 0.828125 -11.34375 C 0.953125 -12.25 1.253906 -12.898438 1.734375 -13.296875 C 2.222656 -13.691406 3.050781 -13.890625 4.21875 -13.890625 C 5.375 -13.890625 6.195312 -13.691406 6.6875 -13.296875 C 7.175781 -12.898438 7.484375 -12.25 7.609375 -11.34375 C 7.742188 -10.445312 7.8125 -8.957031 7.8125 -6.875 C 7.8125 -4.78125 7.742188 -3.28125 7.609375 -2.375 C 7.484375 -1.476562 7.175781 -0.832031 6.6875 -0.4375 C 6.195312 -0.0390625 5.375 0.15625 4.21875 0.15625 Z M 4.21875 -2.015625 C 4.613281 -2.015625 4.882812 -2.09375 5.03125 -2.25 C 5.175781 -2.414062 5.269531 -2.8125 5.3125 -3.4375 C 5.363281 -4.0625 5.390625 -5.207031 5.390625 -6.875 C 5.390625 -8.53125 5.363281 -9.671875 5.3125 -10.296875 C 5.269531 -10.929688 5.175781 -11.328125 5.03125 -11.484375 C 4.882812 -11.640625 4.613281 -11.71875 4.21875 -11.71875 C 3.8125 -11.71875 3.535156 -11.640625 3.390625 -11.484375 C 3.253906 -11.328125 3.160156 -10.929688 3.109375 -10.296875 C 3.054688 -9.660156 3.03125 -8.519531 3.03125 -6.875 C 3.03125 -5.21875 3.054688 -4.070312 3.109375 -3.4375 C 3.160156 -2.8125 3.253906 -2.414062 3.390625 -2.25 C 3.535156 -2.09375 3.8125 -2.015625 4.21875 -2.015625 Z M 4.21875 -2.015625 "/></g></g></g><g fill="#ffffff" fill-opacity="1"><g transform="translate(52.536343, 23.440036)"><g><path d="M 4.234375 -5.75 L 4.234375 -7.875 L 7.421875 -7.875 L 7.421875 -0.265625 C 7.035156 -0.128906 6.5625 -0.0234375 6 0.046875 C 5.445312 0.117188 4.910156 0.15625 4.390625 0.15625 C 3.328125 0.15625 2.535156 -0.0234375 2.015625 -0.390625 C 1.492188 -0.765625 1.132812 -1.441406 0.9375 -2.421875 C 0.738281 -3.398438 0.640625 -4.882812 0.640625 -6.875 C 0.640625 -8.851562 0.742188 -10.332031 0.953125 -11.3125 C 1.171875 -12.289062 1.554688 -12.960938 2.109375 -13.328125 C 2.671875 -13.703125 3.507812 -13.890625 4.625 -13.890625 C 5.050781 -13.890625 5.523438 -13.851562 6.046875 -13.78125 C 6.578125 -13.707031 7.03125 -13.617188 7.40625 -13.515625 L 7.40625 -11.5 C 6.457031 -11.644531 5.753906 -11.71875 5.296875 -11.71875 C 4.546875 -11.71875 4.03125 -11.640625 3.75 -11.484375 C 3.46875 -11.328125 3.273438 -10.925781 3.171875 -10.28125 C 3.066406 -9.644531 3.015625 -8.507812 3.015625 -6.875 C 3.015625 -5.3125 3.039062 -4.207031 3.09375 -3.5625 C 3.15625 -2.925781 3.28125 -2.5 3.46875 -2.28125 C 3.65625 -2.0625 3.984375 -1.953125 4.453125 -1.953125 C 4.785156 -1.953125 5.054688 -1.976562 5.265625 -2.03125 L 5.265625 -5.75 Z M 4.234375 -5.75 "/></g></g></g><g fill="#ffffff" fill-opacity="1"><g transform="translate(60.681193, 23.440036)"><g><path d="M 0.90625 0 L 0.90625 -13.734375 L 3.296875 -13.734375 L 3.296875 0 Z M 0.90625 0 "/></g></g></g><g fill="#ffffff" fill-opacity="1"><g transform="translate(64.873399, 23.440036)"><g><path d="M 5.828125 0 L 5.375 -3.015625 L 3.015625 -3.015625 L 2.5625 0 L 0.1875 0 L 2.4375 -13.734375 L 5.984375 -13.734375 L 8.265625 0 Z M 4.25 -11.265625 L 4.140625 -11.265625 L 3.25 -5.125 L 5.125 -5.125 Z M 4.25 -11.265625 "/></g></g></g><g fill="#ffffff" fill-opacity="1"><g transform="translate(73.297736, 23.440036)"><g/></g></g><g fill="#ffffff" fill-opacity="1"><g transform="translate(76.292166, 23.440036)"><g><path d="M 2.28125 0 L 2.28125 -11.515625 L 0.140625 -11.515625 L 0.140625 -13.734375 L 6.828125 -13.734375 L 6.828125 -11.515625 L 4.6875 -11.515625 L 4.6875 0 Z M 2.28125 0 "/></g></g></g><g fill="#ffffff" fill-opacity="1"><g transform="translate(83.259212, 23.440036)"><g><path d="M 4.21875 0.15625 C 3.050781 0.15625 2.222656 -0.0390625 1.734375 -0.4375 C 1.253906 -0.832031 0.953125 -1.476562 0.828125 -2.375 C 0.703125 -3.28125 0.640625 -4.78125 0.640625 -6.875 C 0.640625 -8.957031 0.703125 -10.445312 0.828125 -11.34375 C 0.953125 -12.25 1.253906 -12.898438 1.734375 -13.296875 C 2.222656 -13.691406 3.050781 -13.890625 4.21875 -13.890625 C 5.375 -13.890625 6.195312 -13.691406 6.6875 -13.296875 C 7.175781 -12.898438 7.484375 -12.25 7.609375 -11.34375 C 7.742188 -10.445312 7.8125 -8.957031 7.8125 -6.875 C 7.8125 -4.78125 7.742188 -3.28125 7.609375 -2.375 C 7.484375 -1.476562 7.175781 -0.832031 6.6875 -0.4375 C 6.195312 -0.0390625 5.375 0.15625 4.21875 0.15625 Z M 4.21875 -2.015625 C 4.613281 -2.015625 4.882812 -2.09375 5.03125 -2.25 C 5.175781 -2.414062 5.269531 -2.8125 5.3125 -3.4375 C 5.363281 -4.0625 5.390625 -5.207031 5.390625 -6.875 C 5.390625 -8.53125 5.363281 -9.671875 5.3125 -10.296875 C 5.269531 -10.929688 5.175781 -11.328125 5.03125 -11.484375 C 4.882812 -11.640625 4.613281 -11.71875 4.21875 -11.71875 C 3.8125 -11.71875 3.535156 -11.640625 3.390625 -11.484375 C 3.253906 -11.328125 3.160156 -10.929688 3.109375 -10.296875 C 3.054688 -9.660156 3.03125 -8.519531 3.03125 -6.875 C 3.03125 -5.21875 3.054688 -4.070312 3.109375 -3.4375 C 3.160156 -2.8125 3.253906 -2.414062 3.390625 -2.25 C 3.535156 -2.09375 3.8125 -2.015625 4.21875 -2.015625 Z M 4.21875 -2.015625 "/></g></g></g><g fill="#ffffff" fill-opacity="1"><g transform="translate(91.70351, 23.440036)"><g><path d="M 7.734375 -13.734375 L 7.734375 -6.046875 C 7.734375 -4.222656 7.671875 -2.914062 7.546875 -2.125 C 7.429688 -1.332031 7.132812 -0.753906 6.65625 -0.390625 C 6.175781 -0.0234375 5.375 0.15625 4.25 0.15625 C 3.132812 0.15625 2.335938 -0.0234375 1.859375 -0.390625 C 1.378906 -0.753906 1.078125 -1.332031 0.953125 -2.125 C 0.835938 -2.914062 0.78125 -4.222656 0.78125 -6.046875 L 0.78125 -13.734375 L 3.171875 -13.734375 L 3.171875 -5.109375 C 3.171875 -4.085938 3.191406 -3.378906 3.234375 -2.984375 C 3.273438 -2.585938 3.363281 -2.328125 3.5 -2.203125 C 3.644531 -2.078125 3.894531 -2.015625 4.25 -2.015625 C 4.613281 -2.015625 4.863281 -2.078125 5 -2.203125 C 5.144531 -2.328125 5.234375 -2.582031 5.265625 -2.96875 C 5.304688 -3.351562 5.328125 -4.066406 5.328125 -5.109375 L 5.328125 -13.734375 Z M 7.734375 -13.734375 "/></g></g></g><g fill="#ffffff" fill-opacity="1"><g transform="translate(100.207695, 23.440036)"><g><path d="M 6.03125 -0.15625 C 5.800781 -0.0625 5.507812 0.0078125 5.15625 0.0625 C 4.800781 0.125 4.472656 0.15625 4.171875 0.15625 C 3.117188 0.15625 2.347656 -0.046875 1.859375 -0.453125 C 1.367188 -0.859375 1.039062 -1.535156 0.875 -2.484375 C 0.71875 -3.429688 0.640625 -4.894531 0.640625 -6.875 C 0.640625 -8.8125 0.722656 -10.265625 0.890625 -11.234375 C 1.054688 -12.203125 1.382812 -12.882812 1.875 -13.28125 C 2.363281 -13.6875 3.128906 -13.890625 4.171875 -13.890625 C 4.535156 -13.890625 4.882812 -13.863281 5.21875 -13.8125 C 5.5625 -13.757812 5.816406 -13.6875 5.984375 -13.59375 L 5.984375 -11.578125 C 5.472656 -11.671875 5.015625 -11.71875 4.609375 -11.71875 C 4.085938 -11.71875 3.722656 -11.617188 3.515625 -11.421875 C 3.316406 -11.234375 3.1875 -10.828125 3.125 -10.203125 C 3.0625 -9.578125 3.03125 -8.46875 3.03125 -6.875 C 3.03125 -5.269531 3.0625 -4.15625 3.125 -3.53125 C 3.1875 -2.90625 3.316406 -2.492188 3.515625 -2.296875 C 3.722656 -2.109375 4.085938 -2.015625 4.609375 -2.015625 C 5.117188 -2.015625 5.59375 -2.0625 6.03125 -2.15625 Z M 6.03125 -0.15625 "/></g></g></g><g fill="#ffffff" fill-opacity="1"><g transform="translate(106.6557, 23.440036)"><g><path d="M 5.4375 0 L 5.4375 -5.796875 L 3.28125 -5.796875 L 3.28125 0 L 0.859375 0 L 0.859375 -13.734375 L 3.28125 -13.734375 L 3.28125 -8.0625 L 5.4375 -8.0625 L 5.4375 -13.734375 L 7.84375 -13.734375 L 7.84375 0 Z M 5.4375 0 "/></g></g></g><g fill="#ffffff" fill-opacity="1"><g transform="translate(115.359514, 23.440036)"><g/></g></g><g fill="#ffffff" fill-opacity="1"><g transform="translate(118.353945, 23.440036)"><g><path d="M 3.578125 0.15625 C 3.109375 0.15625 2.597656 0.125 2.046875 0.0625 C 1.503906 0.0078125 1.039062 -0.0703125 0.65625 -0.1875 L 0.65625 -2.15625 C 1.625 -2.0625 2.378906 -2.015625 2.921875 -2.015625 C 3.285156 -2.015625 3.566406 -2.035156 3.765625 -2.078125 C 3.972656 -2.128906 4.132812 -2.222656 4.25 -2.359375 C 4.4375 -2.585938 4.53125 -3.078125 4.53125 -3.828125 C 4.53125 -4.421875 4.503906 -4.835938 4.453125 -5.078125 C 4.410156 -5.316406 4.316406 -5.488281 4.171875 -5.59375 C 4.023438 -5.707031 3.757812 -5.804688 3.375 -5.890625 L 1.78125 -6.234375 C 1.269531 -6.335938 0.921875 -6.679688 0.734375 -7.265625 C 0.546875 -7.847656 0.453125 -8.703125 0.453125 -9.828125 C 0.453125 -10.898438 0.585938 -11.734375 0.859375 -12.328125 C 1.128906 -12.921875 1.507812 -13.328125 2 -13.546875 C 2.5 -13.773438 3.144531 -13.890625 3.9375 -13.890625 C 4.53125 -13.890625 5.070312 -13.847656 5.5625 -13.765625 C 6.050781 -13.691406 6.359375 -13.628906 6.484375 -13.578125 L 6.484375 -11.578125 C 6.359375 -11.609375 6.117188 -11.640625 5.765625 -11.671875 C 5.410156 -11.703125 5.03125 -11.71875 4.625 -11.71875 C 4.207031 -11.71875 3.878906 -11.6875 3.640625 -11.625 C 3.410156 -11.570312 3.242188 -11.476562 3.140625 -11.34375 C 3.023438 -11.207031 2.953125 -11.03125 2.921875 -10.8125 C 2.890625 -10.601562 2.875 -10.300781 2.875 -9.90625 C 2.875 -9.4375 2.890625 -9.097656 2.921875 -8.890625 C 2.953125 -8.691406 3.019531 -8.546875 3.125 -8.453125 C 3.238281 -8.359375 3.414062 -8.285156 3.65625 -8.234375 L 5.03125 -7.90625 C 5.445312 -7.820312 5.789062 -7.679688 6.0625 -7.484375 C 6.332031 -7.285156 6.546875 -6.941406 6.703125 -6.453125 C 6.847656 -5.972656 6.921875 -5.238281 6.921875 -4.25 C 6.921875 -3.039062 6.796875 -2.113281 6.546875 -1.46875 C 6.304688 -0.832031 5.945312 -0.398438 5.46875 -0.171875 C 5 0.046875 4.367188 0.15625 3.578125 0.15625 Z M 3.578125 0.15625 "/></g></g></g><g fill="#ffffff" fill-opacity="1"><g transform="translate(125.700287, 23.440036)"><g><path d="M 6.03125 -0.15625 C 5.800781 -0.0625 5.507812 0.0078125 5.15625 0.0625 C 4.800781 0.125 4.472656 0.15625 4.171875 0.15625 C 3.117188 0.15625 2.347656 -0.046875 1.859375 -0.453125 C 1.367188 -0.859375 1.039062 -1.535156 0.875 -2.484375 C 0.71875 -3.429688 0.640625 -4.894531 0.640625 -6.875 C 0.640625 -8.8125 0.722656 -10.265625 0.890625 -11.234375 C 1.054688 -12.203125 1.382812 -12.882812 1.875 -13.28125 C 2.363281 -13.6875 3.128906 -13.890625 4.171875 -13.890625 C 4.535156 -13.890625 4.882812 -13.863281 5.21875 -13.8125 C 5.5625 -13.757812 5.816406 -13.6875 5.984375 -13.59375 L 5.984375 -11.578125 C 5.472656 -11.671875 5.015625 -11.71875 4.609375 -11.71875 C 4.085938 -11.71875 3.722656 -11.617188 3.515625 -11.421875 C 3.316406 -11.234375 3.1875 -10.828125 3.125 -10.203125 C 3.0625 -9.578125 3.03125 -8.46875 3.03125 -6.875 C 3.03125 -5.269531 3.0625 -4.15625 3.125 -3.53125 C 3.1875 -2.90625 3.316406 -2.492188 3.515625 -2.296875 C 3.722656 -2.109375 4.085938 -2.015625 4.609375 -2.015625 C 5.117188 -2.015625 5.59375 -2.0625 6.03125 -2.15625 Z M 6.03125 -0.15625 "/></g></g></g><g fill="#ffffff" fill-opacity="1"><g transform="translate(132.148292, 23.440036)"><g><path d="M 5.578125 0 L 4.40625 -4.890625 L 3.28125 -4.890625 L 3.28125 0 L 0.859375 0 L 0.859375 -13.734375 L 4.625 -13.734375 C 5.519531 -13.734375 6.191406 -13.566406 6.640625 -13.234375 C 7.085938 -12.898438 7.382812 -12.425781 7.53125 -11.8125 C 7.675781 -11.207031 7.75 -10.378906 7.75 -9.328125 C 7.75 -8.285156 7.675781 -7.453125 7.53125 -6.828125 C 7.382812 -6.210938 7.070312 -5.75 6.59375 -5.4375 L 8.046875 0 Z M 4.234375 -7.015625 C 4.578125 -7.015625 4.828125 -7.066406 4.984375 -7.171875 C 5.140625 -7.285156 5.238281 -7.492188 5.28125 -7.796875 C 5.332031 -8.109375 5.359375 -8.601562 5.359375 -9.28125 C 5.359375 -9.957031 5.332031 -10.445312 5.28125 -10.75 C 5.238281 -11.0625 5.140625 -11.273438 4.984375 -11.390625 C 4.828125 -11.503906 4.578125 -11.5625 4.234375 -11.5625 L 3.28125 -11.5625 L 3.28125 -7.015625 Z M 4.234375 -7.015625 "/></g></g></g><g fill="#ffffff" fill-opacity="1"><g transform="translate(140.512734, 23.440036)"><g><path d="M 0.859375 0 L 0.859375 -13.734375 L 6.328125 -13.734375 L 6.328125 -11.5625 L 3.28125 -11.5625 L 3.28125 -8.03125 L 5.953125 -8.03125 L 5.953125 -5.84375 L 3.28125 -5.84375 L 3.28125 -2.171875 L 6.328125 -2.171875 L 6.328125 0 Z M 0.859375 0 "/></g></g></g><g fill="#ffffff" fill-opacity="1"><g transform="translate(147.399922, 23.440036)"><g><path d="M 0.859375 0 L 0.859375 -13.734375 L 6.328125 -13.734375 L 6.328125 -11.5625 L 3.28125 -11.5625 L 3.28125 -8.03125 L 5.953125 -8.03125 L 5.953125 -5.84375 L 3.28125 -5.84375 L 3.28125 -2.171875 L 6.328125 -2.171875 L 6.328125 0 Z M 0.859375 0 "/></g></g></g><g fill="#ffffff" fill-opacity="1"><g transform="translate(154.28711, 23.440036)"><g><path d="M 5.765625 0 L 3.234375 -7.75 L 3.15625 -7.75 L 3.15625 0 L 0.859375 0 L 0.859375 -13.734375 L 3.140625 -13.734375 L 5.515625 -6.53125 L 5.625 -6.53125 L 5.625 -13.734375 L 7.90625 -13.734375 L 7.90625 0 Z M 5.765625 0 "/></g></g></g><g fill="#ffffff" fill-opacity="1"><g transform="translate(163.050801, 23.440036)"><g><path d="M 1.5625 -4.171875 C 1.101562 -8.722656 0.875 -11.441406 0.875 -12.328125 L 0.875 -13.734375 L 3.65625 -13.734375 L 3.65625 -12.328125 C 3.65625 -11.847656 3.585938 -10.820312 3.453125 -9.25 C 3.316406 -7.6875 3.15625 -5.992188 2.96875 -4.171875 Z M 1.03125 0 L 1.03125 -2.421875 L 3.5 -2.421875 L 3.5 0 Z M 1.03125 0 "/></g></g></g></g></g></g><g mask="url(#id8)"><g transform="matrix(1, 0, 0, 1, 609, 237)"><g clip-path="url(#id9)"><g fill="#ffffff" fill-opacity="1"><g transform="translate(0.373354, 23.493086)"><g><path d="M 6.03125 -0.15625 C 5.800781 -0.0625 5.507812 0.0078125 5.15625 0.0625 C 4.800781 0.125 4.472656 0.15625 4.171875 0.15625 C 3.117188 0.15625 2.347656 -0.046875 1.859375 -0.453125 C 1.367188 -0.859375 1.039062 -1.535156 0.875 -2.484375 C 0.71875 -3.429688 0.640625 -4.894531 0.640625 -6.875 C 0.640625 -8.8125 0.722656 -10.265625 0.890625 -11.234375 C 1.054688 -12.203125 1.382812 -12.882812 1.875 -13.28125 C 2.363281 -13.6875 3.128906 -13.890625 4.171875 -13.890625 C 4.535156 -13.890625 4.882812 -13.863281 5.21875 -13.8125 C 5.5625 -13.757812 5.816406 -13.6875 5.984375 -13.59375 L 5.984375 -11.578125 C 5.472656 -11.671875 5.015625 -11.71875 4.609375 -11.71875 C 4.085938 -11.71875 3.722656 -11.617188 3.515625 -11.421875 C 3.316406 -11.234375 3.1875 -10.828125 3.125 -10.203125 C 3.0625 -9.578125 3.03125 -8.46875 3.03125 -6.875 C 3.03125 -5.269531 3.0625 -4.15625 3.125 -3.53125 C 3.1875 -2.90625 3.316406 -2.492188 3.515625 -2.296875 C 3.722656 -2.109375 4.085938 -2.015625 4.609375 -2.015625 C 5.117188 -2.015625 5.59375 -2.0625 6.03125 -2.15625 Z M 6.03125 -0.15625 "/></g></g></g><g fill="#ffffff" fill-opacity="1"><g transform="translate(6.82136, 23.493086)"><g><path d="M 5.828125 0 L 5.375 -3.015625 L 3.015625 -3.015625 L 2.5625 0 L 0.1875 0 L 2.4375 -13.734375 L 5.984375 -13.734375 L 8.265625 0 Z M 4.25 -11.265625 L 4.140625 -11.265625 L 3.25 -5.125 L 5.125 -5.125 Z M 4.25 -11.265625 "/></g></g></g><g fill="#ffffff" fill-opacity="1"><g transform="translate(15.245697, 23.493086)"><g><path d="M 5.578125 0 L 4.40625 -4.890625 L 3.28125 -4.890625 L 3.28125 0 L 0.859375 0 L 0.859375 -13.734375 L 4.625 -13.734375 C 5.519531 -13.734375 6.191406 -13.566406 6.640625 -13.234375 C 7.085938 -12.898438 7.382812 -12.425781 7.53125 -11.8125 C 7.675781 -11.207031 7.75 -10.378906 7.75 -9.328125 C 7.75 -8.285156 7.675781 -7.453125 7.53125 -6.828125 C 7.382812 -6.210938 7.070312 -5.75 6.59375 -5.4375 L 8.046875 0 Z M 4.234375 -7.015625 C 4.578125 -7.015625 4.828125 -7.066406 4.984375 -7.171875 C 5.140625 -7.285156 5.238281 -7.492188 5.28125 -7.796875 C 5.332031 -8.109375 5.359375 -8.601562 5.359375 -9.28125 C 5.359375 -9.957031 5.332031 -10.445312 5.28125 -10.75 C 5.238281 -11.0625 5.140625 -11.273438 4.984375 -11.390625 C 4.828125 -11.503906 4.578125 -11.5625 4.234375 -11.5625 L 3.28125 -11.5625 L 3.28125 -7.015625 Z M 4.234375 -7.015625 "/></g></g></g><g fill="#ffffff" fill-opacity="1"><g transform="translate(23.610138, 23.493086)"><g><path d="M 5.578125 0 L 4.40625 -4.890625 L 3.28125 -4.890625 L 3.28125 0 L 0.859375 0 L 0.859375 -13.734375 L 4.625 -13.734375 C 5.519531 -13.734375 6.191406 -13.566406 6.640625 -13.234375 C 7.085938 -12.898438 7.382812 -12.425781 7.53125 -11.8125 C 7.675781 -11.207031 7.75 -10.378906 7.75 -9.328125 C 7.75 -8.285156 7.675781 -7.453125 7.53125 -6.828125 C 7.382812 -6.210938 7.070312 -5.75 6.59375 -5.4375 L 8.046875 0 Z M 4.234375 -7.015625 C 4.578125 -7.015625 4.828125 -7.066406 4.984375 -7.171875 C 5.140625 -7.285156 5.238281 -7.492188 5.28125 -7.796875 C 5.332031 -8.109375 5.359375 -8.601562 5.359375 -9.28125 C 5.359375 -9.957031 5.332031 -10.445312 5.28125 -10.75 C 5.238281 -11.0625 5.140625 -11.273438 4.984375 -11.390625 C 4.828125 -11.503906 4.578125 -11.5625 4.234375 -11.5625 L 3.28125 -11.5625 L 3.28125 -7.015625 Z M 4.234375 -7.015625 "/></g></g></g><g fill="#ffffff" fill-opacity="1"><g transform="translate(31.974579, 23.493086)"><g><path d="M 0.859375 0 L 0.859375 -13.734375 L 6.328125 -13.734375 L 6.328125 -11.5625 L 3.28125 -11.5625 L 3.28125 -8.03125 L 5.953125 -8.03125 L 5.953125 -5.84375 L 3.28125 -5.84375 L 3.28125 -2.171875 L 6.328125 -2.171875 L 6.328125 0 Z M 0.859375 0 "/></g></g></g><g fill="#ffffff" fill-opacity="1"><g transform="translate(38.861767, 23.493086)"><g><path d="M 4.234375 -5.75 L 4.234375 -7.875 L 7.421875 -7.875 L 7.421875 -0.265625 C 7.035156 -0.128906 6.5625 -0.0234375 6 0.046875 C 5.445312 0.117188 4.910156 0.15625 4.390625 0.15625 C 3.328125 0.15625 2.535156 -0.0234375 2.015625 -0.390625 C 1.492188 -0.765625 1.132812 -1.441406 0.9375 -2.421875 C 0.738281 -3.398438 0.640625 -4.882812 0.640625 -6.875 C 0.640625 -8.851562 0.742188 -10.332031 0.953125 -11.3125 C 1.171875 -12.289062 1.554688 -12.960938 2.109375 -13.328125 C 2.671875 -13.703125 3.507812 -13.890625 4.625 -13.890625 C 5.050781 -13.890625 5.523438 -13.851562 6.046875 -13.78125 C 6.578125 -13.707031 7.03125 -13.617188 7.40625 -13.515625 L 7.40625 -11.5 C 6.457031 -11.644531 5.753906 -11.71875 5.296875 -11.71875 C 4.546875 -11.71875 4.03125 -11.640625 3.75 -11.484375 C 3.46875 -11.328125 3.273438 -10.925781 3.171875 -10.28125 C 3.066406 -9.644531 3.015625 -8.507812 3.015625 -6.875 C 3.015625 -5.3125 3.039062 -4.207031 3.09375 -3.5625 C 3.15625 -2.925781 3.28125 -2.5 3.46875 -2.28125 C 3.65625 -2.0625 3.984375 -1.953125 4.453125 -1.953125 C 4.785156 -1.953125 5.054688 -1.976562 5.265625 -2.03125 L 5.265625 -5.75 Z M 4.234375 -5.75 "/></g></g></g><g fill="#ffffff" fill-opacity="1"><g transform="translate(47.006617, 23.493086)"><g><path d="M 5.828125 0 L 5.375 -3.015625 L 3.015625 -3.015625 L 2.5625 0 L 0.1875 0 L 2.4375 -13.734375 L 5.984375 -13.734375 L 8.265625 0 Z M 4.25 -11.265625 L 4.140625 -11.265625 L 3.25 -5.125 L 5.125 -5.125 Z M 4.25 -11.265625 "/></g></g></g><g fill="#ffffff" fill-opacity="1"><g transform="translate(55.430954, 23.493086)"><g><path d="M 9 0 L 9 -10.625 L 8.859375 -10.625 L 7.265625 0 L 4.859375 0 L 3.296875 -10.625 L 3.140625 -10.625 L 3.140625 0 L 0.859375 0 L 0.859375 -13.734375 L 4.59375 -13.734375 L 6.078125 -3.609375 L 6.203125 -3.609375 L 7.6875 -13.734375 L 11.328125 -13.734375 L 11.328125 0 Z M 9 0 "/></g></g></g><g fill="#ffffff" fill-opacity="1"><g transform="translate(67.628267, 23.493086)"><g><path d="M 0.859375 0 L 0.859375 -13.734375 L 6.328125 -13.734375 L 6.328125 -11.5625 L 3.28125 -11.5625 L 3.28125 -8.03125 L 5.953125 -8.03125 L 5.953125 -5.84375 L 3.28125 -5.84375 L 3.28125 -2.171875 L 6.328125 -2.171875 L 6.328125 0 Z M 0.859375 0 "/></g></g></g><g fill="#ffffff" fill-opacity="1"><g transform="translate(74.515455, 23.493086)"><g><path d="M 5.765625 0 L 3.234375 -7.75 L 3.15625 -7.75 L 3.15625 0 L 0.859375 0 L 0.859375 -13.734375 L 3.140625 -13.734375 L 5.515625 -6.53125 L 5.625 -6.53125 L 5.625 -13.734375 L 7.90625 -13.734375 L 7.90625 0 Z M 5.765625 0 "/></g></g></g><g fill="#ffffff" fill-opacity="1"><g transform="translate(83.279155, 23.493086)"><g><path d="M 2.28125 0 L 2.28125 -11.515625 L 0.140625 -11.515625 L 0.140625 -13.734375 L 6.828125 -13.734375 L 6.828125 -11.515625 L 4.6875 -11.515625 L 4.6875 0 Z M 2.28125 0 "/></g></g></g><g fill="#ffffff" fill-opacity="1"><g transform="translate(90.2462, 23.493086)"><g><path d="M 4.21875 0.15625 C 3.050781 0.15625 2.222656 -0.0390625 1.734375 -0.4375 C 1.253906 -0.832031 0.953125 -1.476562 0.828125 -2.375 C 0.703125 -3.28125 0.640625 -4.78125 0.640625 -6.875 C 0.640625 -8.957031 0.703125 -10.445312 0.828125 -11.34375 C 0.953125 -12.25 1.253906 -12.898438 1.734375 -13.296875 C 2.222656 -13.691406 3.050781 -13.890625 4.21875 -13.890625 C 5.375 -13.890625 6.195312 -13.691406 6.6875 -13.296875 C 7.175781 -12.898438 7.484375 -12.25 7.609375 -11.34375 C 7.742188 -10.445312 7.8125 -8.957031 7.8125 -6.875 C 7.8125 -4.78125 7.742188 -3.28125 7.609375 -2.375 C 7.484375 -1.476562 7.175781 -0.832031 6.6875 -0.4375 C 6.195312 -0.0390625 5.375 0.15625 4.21875 0.15625 Z M 4.21875 -2.015625 C 4.613281 -2.015625 4.882812 -2.09375 5.03125 -2.25 C 5.175781 -2.414062 5.269531 -2.8125 5.3125 -3.4375 C 5.363281 -4.0625 5.390625 -5.207031 5.390625 -6.875 C 5.390625 -8.53125 5.363281 -9.671875 5.3125 -10.296875 C 5.269531 -10.929688 5.175781 -11.328125 5.03125 -11.484375 C 4.882812 -11.640625 4.613281 -11.71875 4.21875 -11.71875 C 3.8125 -11.71875 3.535156 -11.640625 3.390625 -11.484375 C 3.253906 -11.328125 3.160156 -10.929688 3.109375 -10.296875 C 3.054688 -9.660156 3.03125 -8.519531 3.03125 -6.875 C 3.03125 -5.21875 3.054688 -4.070312 3.109375 -3.4375 C 3.160156 -2.8125 3.253906 -2.414062 3.390625 -2.25 C 3.535156 -2.09375 3.8125 -2.015625 4.21875 -2.015625 Z M 4.21875 -2.015625 "/></g></g></g><g fill="#ffffff" fill-opacity="1"><g transform="translate(98.690499, 23.493086)"><g/></g></g><g fill="#ffffff" fill-opacity="1"><g transform="translate(101.684929, 23.493086)"><g><path d="M 9 0 L 9 -10.625 L 8.859375 -10.625 L 7.265625 0 L 4.859375 0 L 3.296875 -10.625 L 3.140625 -10.625 L 3.140625 0 L 0.859375 0 L 0.859375 -13.734375 L 4.59375 -13.734375 L 6.078125 -3.609375 L 6.203125 -3.609375 L 7.6875 -13.734375 L 11.328125 -13.734375 L 11.328125 0 Z M 9 0 "/></g></g></g><g fill="#ffffff" fill-opacity="1"><g transform="translate(113.882242, 23.493086)"><g><path d="M 5.828125 0 L 5.375 -3.015625 L 3.015625 -3.015625 L 2.5625 0 L 0.1875 0 L 2.4375 -13.734375 L 5.984375 -13.734375 L 8.265625 0 Z M 4.25 -11.265625 L 4.140625 -11.265625 L 3.25 -5.125 L 5.125 -5.125 Z M 4.25 -11.265625 "/></g></g></g><g fill="#ffffff" fill-opacity="1"><g transform="translate(122.306579, 23.493086)"><g><path d="M 4.234375 -5.75 L 4.234375 -7.875 L 7.421875 -7.875 L 7.421875 -0.265625 C 7.035156 -0.128906 6.5625 -0.0234375 6 0.046875 C 5.445312 0.117188 4.910156 0.15625 4.390625 0.15625 C 3.328125 0.15625 2.535156 -0.0234375 2.015625 -0.390625 C 1.492188 -0.765625 1.132812 -1.441406 0.9375 -2.421875 C 0.738281 -3.398438 0.640625 -4.882812 0.640625 -6.875 C 0.640625 -8.851562 0.742188 -10.332031 0.953125 -11.3125 C 1.171875 -12.289062 1.554688 -12.960938 2.109375 -13.328125 C 2.671875 -13.703125 3.507812 -13.890625 4.625 -13.890625 C 5.050781 -13.890625 5.523438 -13.851562 6.046875 -13.78125 C 6.578125 -13.707031 7.03125 -13.617188 7.40625 -13.515625 L 7.40625 -11.5 C 6.457031 -11.644531 5.753906 -11.71875 5.296875 -11.71875 C 4.546875 -11.71875 4.03125 -11.640625 3.75 -11.484375 C 3.46875 -11.328125 3.273438 -10.925781 3.171875 -10.28125 C 3.066406 -9.644531 3.015625 -8.507812 3.015625 -6.875 C 3.015625 -5.3125 3.039062 -4.207031 3.09375 -3.5625 C 3.15625 -2.925781 3.28125 -2.5 3.46875 -2.28125 C 3.65625 -2.0625 3.984375 -1.953125 4.453125 -1.953125 C 4.785156 -1.953125 5.054688 -1.976562 5.265625 -2.03125 L 5.265625 -5.75 Z M 4.234375 -5.75 "/></g></g></g><g fill="#ffffff" fill-opacity="1"><g transform="translate(130.451429, 23.493086)"><g><path d="M 5.765625 0 L 3.234375 -7.75 L 3.15625 -7.75 L 3.15625 0 L 0.859375 0 L 0.859375 -13.734375 L 3.140625 -13.734375 L 5.515625 -6.53125 L 5.625 -6.53125 L 5.625 -13.734375 L 7.90625 -13.734375 L 7.90625 0 Z M 5.765625 0 "/></g></g></g><g fill="#ffffff" fill-opacity="1"><g transform="translate(139.215129, 23.493086)"><g><path d="M 0.859375 0 L 0.859375 -13.734375 L 6.328125 -13.734375 L 6.328125 -11.5625 L 3.28125 -11.5625 L 3.28125 -8.03125 L 5.953125 -8.03125 L 5.953125 -5.84375 L 3.28125 -5.84375 L 3.28125 -2.171875 L 6.328125 -2.171875 L 6.328125 0 Z M 3 -14.9375 L 3 -15.046875 L 3.71875 -17.84375 L 5.9375 -17.84375 L 5.9375 -17.734375 L 4.84375 -14.9375 Z M 3 -14.9375 "/></g></g></g><g fill="#ffffff" fill-opacity="1"><g transform="translate(146.102317, 23.493086)"><g><path d="M 2.28125 0 L 2.28125 -11.515625 L 0.140625 -11.515625 L 0.140625 -13.734375 L 6.828125 -13.734375 L 6.828125 -11.515625 L 4.6875 -11.515625 L 4.6875 0 Z M 2.28125 0 "/></g></g></g><g fill="#ffffff" fill-opacity="1"><g transform="translate(153.069362, 23.493086)"><g><path d="M 0.90625 0 L 0.90625 -13.734375 L 3.296875 -13.734375 L 3.296875 0 Z M 0.90625 0 "/></g></g></g><g fill="#ffffff" fill-opacity="1"><g transform="translate(157.261578, 23.493086)"><g><path d="M 6.03125 -0.15625 C 5.800781 -0.0625 5.507812 0.0078125 5.15625 0.0625 C 4.800781 0.125 4.472656 0.15625 4.171875 0.15625 C 3.117188 0.15625 2.347656 -0.046875 1.859375 -0.453125 C 1.367188 -0.859375 1.039062 -1.535156 0.875 -2.484375 C 0.71875 -3.429688 0.640625 -4.894531 0.640625 -6.875 C 0.640625 -8.8125 0.722656 -10.265625 0.890625 -11.234375 C 1.054688 -12.203125 1.382812 -12.882812 1.875 -13.28125 C 2.363281 -13.6875 3.128906 -13.890625 4.171875 -13.890625 C 4.535156 -13.890625 4.882812 -13.863281 5.21875 -13.8125 C 5.5625 -13.757812 5.816406 -13.6875 5.984375 -13.59375 L 5.984375 -11.578125 C 5.472656 -11.671875 5.015625 -11.71875 4.609375 -11.71875 C 4.085938 -11.71875 3.722656 -11.617188 3.515625 -11.421875 C 3.316406 -11.234375 3.1875 -10.828125 3.125 -10.203125 C 3.0625 -9.578125 3.03125 -8.46875 3.03125 -6.875 C 3.03125 -5.269531 3.0625 -4.15625 3.125 -3.53125 C 3.1875 -2.90625 3.316406 -2.492188 3.515625 -2.296875 C 3.722656 -2.109375 4.085938 -2.015625 4.609375 -2.015625 C 5.117188 -2.015625 5.59375 -2.0625 6.03125 -2.15625 Z M 6.03125 -0.15625 "/></g></g></g><g fill="#ffffff" fill-opacity="1"><g transform="translate(163.709574, 23.493086)"><g><path d="M 4.21875 0.15625 C 3.050781 0.15625 2.222656 -0.0390625 1.734375 -0.4375 C 1.253906 -0.832031 0.953125 -1.476562 0.828125 -2.375 C 0.703125 -3.28125 0.640625 -4.78125 0.640625 -6.875 C 0.640625 -8.957031 0.703125 -10.445312 0.828125 -11.34375 C 0.953125 -12.25 1.253906 -12.898438 1.734375 -13.296875 C 2.222656 -13.691406 3.050781 -13.890625 4.21875 -13.890625 C 5.375 -13.890625 6.195312 -13.691406 6.6875 -13.296875 C 7.175781 -12.898438 7.484375 -12.25 7.609375 -11.34375 C 7.742188 -10.445312 7.8125 -8.957031 7.8125 -6.875 C 7.8125 -4.78125 7.742188 -3.28125 7.609375 -2.375 C 7.484375 -1.476562 7.175781 -0.832031 6.6875 -0.4375 C 6.195312 -0.0390625 5.375 0.15625 4.21875 0.15625 Z M 4.21875 -2.015625 C 4.613281 -2.015625 4.882812 -2.09375 5.03125 -2.25 C 5.175781 -2.414062 5.269531 -2.8125 5.3125 -3.4375 C 5.363281 -4.0625 5.390625 -5.207031 5.390625 -6.875 C 5.390625 -8.53125 5.363281 -9.671875 5.3125 -10.296875 C 5.269531 -10.929688 5.175781 -11.328125 5.03125 -11.484375 C 4.882812 -11.640625 4.613281 -11.71875 4.21875 -11.71875 C 3.8125 -11.71875 3.535156 -11.640625 3.390625 -11.484375 C 3.253906 -11.328125 3.160156 -10.929688 3.109375 -10.296875 C 3.054688 -9.660156 3.03125 -8.519531 3.03125 -6.875 C 3.03125 -5.21875 3.054688 -4.070312 3.109375 -3.4375 C 3.160156 -2.8125 3.253906 -2.414062 3.390625 -2.25 C 3.535156 -2.09375 3.8125 -2.015625 4.21875 -2.015625 Z M 4.21875 -2.015625 "/></g></g></g><g fill="#ffffff" fill-opacity="1"><g transform="translate(172.153882, 23.493086)"><g><path d="M 1.5625 -4.171875 C 1.101562 -8.722656 0.875 -11.441406 0.875 -12.328125 L 0.875 -13.734375 L 3.65625 -13.734375 L 3.65625 -12.328125 C 3.65625 -11.847656 3.585938 -10.820312 3.453125 -9.25 C 3.316406 -7.6875 3.15625 -5.992188 2.96875 -4.171875 Z M 1.03125 0 L 1.03125 -2.421875 L 3.5 -2.421875 L 3.5 0 Z M 1.03125 0 "/></g></g></g></g></g></g><g mask="url(#id10)"><g transform="matrix(1, 0, 0, 1, 571, 227)"><g clip-path="url(#id14)"><g clip-path="url(#id11)"><path fill="#ffde59" d="M 23.113281 25.460938 C 22.878906 25.226562 22.53125 25.226562 22.296875 25.460938 L 18.496094 29.261719 C 16.125 31.632812 12.210938 31.574219 9.753906 29.144531 C 7.414062 26.804688 7.269531 22.769531 9.636719 20.398438 C 9.636719 20.398438 13.4375 16.597656 13.4375 16.597656 C 13.671875 16.363281 13.671875 16.011719 13.4375 15.777344 L 9.109375 11.476562 C 8.875 11.242188 8.496094 11.242188 8.292969 11.476562 L 4.492188 15.28125 C -0.65625 20.429688 -0.539062 28.910156 4.722656 34.175781 C 7.414062 36.867188 10.894531 38.214844 14.371094 38.214844 C 17.734375 38.214844 21.066406 36.957031 23.613281 34.410156 C 23.613281 34.410156 27.414062 30.609375 27.414062 30.609375 C 27.644531 30.375 27.644531 29.992188 27.414062 29.789062 C 27.414062 29.789062 23.113281 25.488281 23.113281 25.460938 Z M 22.761719 33.59375 C 18.085938 38.273438 10.335938 38.183594 5.515625 33.359375 C 0.691406 28.53125 0.601562 20.808594 5.28125 16.101562 L 8.671875 12.707031 L 12.152344 16.1875 L 8.789062 19.582031 C 5.953125 22.417969 6.011719 27.097656 8.90625 29.992188 C 11.800781 32.890625 16.476562 32.949219 19.285156 30.109375 L 22.675781 26.71875 L 26.15625 30.199219 Z M 22.761719 33.59375 " fill-opacity="1" fill-rule="nonzero"/></g><path fill="#ffde59" d="M 12.675781 12.472656 C 12.824219 12.472656 12.96875 12.414062 13.085938 12.296875 L 14.898438 10.484375 L 15.160156 11.332031 C 15.21875 11.535156 15.367188 11.683594 15.570312 11.742188 C 15.777344 11.800781 15.980469 11.742188 16.125 11.59375 L 18.933594 8.785156 C 19.167969 8.554688 19.167969 8.203125 18.933594 7.96875 C 18.699219 7.734375 18.347656 7.734375 18.113281 7.96875 L 15.980469 10.101562 L 15.71875 9.253906 C 15.660156 9.050781 15.511719 8.902344 15.308594 8.84375 C 15.105469 8.785156 14.898438 8.84375 14.753906 8.992188 C 14.753906 8.992188 12.265625 11.476562 12.265625 11.476562 C 11.886719 11.828125 12.152344 12.472656 12.675781 12.472656 Z M 12.675781 12.472656 " fill-opacity="1" fill-rule="nonzero"/><path fill="#ffde59" d="M 30.101562 19.960938 L 27.296875 22.769531 C 27.148438 22.914062 27.089844 23.121094 27.148438 23.324219 C 27.207031 23.53125 27.355469 23.675781 27.558594 23.734375 L 28.40625 23.996094 L 26.59375 25.8125 C 26.359375 26.046875 26.359375 26.394531 26.59375 26.628906 C 26.828125 26.863281 27.207031 26.863281 27.414062 26.628906 L 29.898438 24.144531 C 30.042969 23.996094 30.101562 23.792969 30.042969 23.589844 C 29.984375 23.382812 29.839844 23.238281 29.632812 23.179688 L 28.785156 22.914062 L 30.921875 20.78125 C 31.15625 20.546875 31.15625 20.195312 30.921875 19.960938 C 30.6875 19.726562 30.335938 19.726562 30.101562 19.960938 Z M 30.101562 19.960938 " fill-opacity="1" fill-rule="nonzero"/><path fill="#ffde59" d="M 22.472656 10.71875 C 22.382812 10.25 22.324219 9.753906 22.324219 9.253906 C 22.324219 6.972656 23.378906 4.925781 25.015625 3.582031 C 25.101562 2.90625 25.367188 2.265625 25.714844 1.707031 C 22.996094 3.140625 21.15625 5.980469 21.15625 9.253906 C 21.15625 10.660156 21.507812 11.976562 22.089844 13.117188 Z M 22.472656 10.71875 " fill-opacity="1" fill-rule="nonzero"/><g clip-path="url(#id12)"><path fill="#ffde59" d="M 33.550781 1.738281 C 33.902344 2.292969 34.167969 2.90625 34.253906 3.609375 C 35.890625 4.957031 36.945312 7.003906 36.945312 9.285156 C 36.945312 9.78125 36.886719 10.277344 36.796875 10.746094 L 37.175781 13.144531 C 37.761719 11.976562 38.113281 10.660156 38.113281 9.285156 C 38.113281 5.980469 36.269531 3.140625 33.550781 1.738281 Z M 33.550781 1.738281 " fill-opacity="1" fill-rule="nonzero"/></g><path fill="#ffde59" d="M 29.632812 16.566406 C 28.171875 16.566406 26.828125 16.128906 25.6875 15.398438 L 23.785156 15.398438 C 25.308594 16.859375 27.355469 17.738281 29.632812 17.738281 C 31.914062 17.738281 33.960938 16.859375 35.480469 15.398438 L 33.609375 15.398438 C 32.441406 16.128906 31.097656 16.566406 29.632812 16.566406 Z M 29.632812 16.566406 " fill-opacity="1" fill-rule="nonzero"/><path fill="#ffde59" d="M 35.511719 10.042969 C 35.421875 9.488281 34.925781 9.019531 34.3125 8.933594 L 31.738281 8.523438 C 31.679688 8.523438 31.652344 8.496094 31.621094 8.496094 C 31.273438 8.671875 30.890625 8.785156 30.480469 8.875 C 30.65625 9.3125 31.066406 9.605469 31.5625 9.695312 L 34.136719 10.101562 C 34.253906 10.132812 34.339844 10.191406 34.339844 10.21875 L 34.78125 13.058594 L 24.460938 13.058594 L 24.898438 10.21875 C 24.898438 10.191406 24.957031 10.132812 25.101562 10.101562 L 27.675781 9.695312 C 28.171875 9.605469 28.582031 9.3125 28.757812 8.875 C 28.347656 8.785156 27.96875 8.671875 27.617188 8.496094 C 27.585938 8.523438 27.558594 8.523438 27.5 8.523438 L 24.957031 8.960938 C 24.34375 9.050781 23.84375 9.488281 23.757812 10.042969 L 23.203125 13.554688 C 23.171875 13.730469 23.230469 13.90625 23.347656 14.023438 C 23.464844 14.140625 23.613281 14.226562 23.785156 14.226562 L 35.480469 14.226562 C 35.65625 14.226562 35.804688 14.140625 35.921875 14.023438 C 36.039062 13.90625 36.066406 13.730469 36.066406 13.554688 Z M 35.511719 10.042969 " fill-opacity="1" fill-rule="nonzero"/><g clip-path="url(#id13)"><path fill="#ffde59" d="M 29.632812 7.792969 C 31.5625 7.792969 33.144531 6.214844 33.144531 4.28125 C 33.144531 2.351562 31.5625 0.773438 29.632812 0.773438 C 27.703125 0.773438 26.125 2.351562 26.125 4.28125 C 26.125 6.214844 27.703125 7.792969 29.632812 7.792969 Z M 29.632812 1.941406 C 30.921875 1.941406 31.972656 2.996094 31.972656 4.28125 C 31.972656 5.570312 30.921875 6.621094 29.632812 6.621094 C 28.347656 6.621094 27.296875 5.570312 27.296875 4.28125 C 27.296875 2.996094 28.347656 1.941406 29.632812 1.941406 Z M 29.632812 1.941406 " fill-opacity="1" fill-rule="nonzero"/></g></g></g></g><g mask="url(#id15)"><g transform="matrix(1, 0, 0, 1, 571, 118)"><g clip-path="url(#id21)"><g clip-path="url(#id16)"><path fill="#ffde59" d="M 28.242188 38.804688 C 28.167969 38.804688 28.089844 38.796875 28.015625 38.773438 C 27.613281 38.648438 27.390625 38.222656 27.515625 37.820312 L 31.027344 26.433594 C 31.359375 25.363281 31.210938 24.199219 30.628906 23.242188 C 30.042969 22.285156 29.074219 21.628906 27.96875 21.433594 L 20.625 20.160156 C 20.261719 20.097656 19.996094 19.78125 19.996094 19.410156 L 19.996094 8.53125 C 19.996094 7.082031 18.820312 5.902344 17.371094 5.902344 C 15.921875 5.902344 14.746094 7.082031 14.746094 8.53125 L 14.746094 26.09375 C 14.746094 26.402344 14.558594 26.683594 14.277344 26.800781 C 13.992188 26.917969 13.664062 26.851562 13.445312 26.632812 L 10.371094 23.558594 C 9.265625 22.453125 7.472656 22.453125 6.371094 23.558594 C 5.265625 24.660156 5.265625 26.457031 6.371094 27.5625 L 16.304688 37.503906 C 16.601562 37.800781 16.601562 38.285156 16.304688 38.582031 C 16.007812 38.878906 15.523438 38.878906 15.226562 38.582031 L 5.292969 28.640625 C 3.597656 26.941406 3.597656 24.179688 5.292969 22.480469 C 6.988281 20.78125 9.75 20.78125 11.449219 22.480469 L 13.222656 24.253906 L 13.222656 8.53125 C 13.222656 6.242188 15.082031 4.378906 17.371094 4.378906 C 19.65625 4.378906 21.519531 6.242188 21.519531 8.53125 L 21.519531 18.765625 L 28.230469 19.933594 C 29.765625 20.199219 31.113281 21.117188 31.925781 22.445312 C 32.738281 23.777344 32.945312 25.394531 32.480469 26.882812 L 28.96875 38.269531 C 28.867188 38.597656 28.566406 38.804688 28.242188 38.804688 " fill-opacity="1" fill-rule="nonzero"/></g><g clip-path="url(#id17)"><path fill="#ffde59" d="M 9.957031 17.121094 C 9.761719 17.121094 9.566406 17.046875 9.417969 16.898438 C 7.285156 14.765625 6.113281 11.925781 6.113281 8.910156 C 6.113281 5.894531 7.285156 3.054688 9.417969 0.921875 C 9.714844 0.625 10.199219 0.625 10.496094 0.921875 C 10.792969 1.21875 10.792969 1.703125 10.496094 2 C 8.652344 3.84375 7.636719 6.300781 7.636719 8.910156 C 7.636719 11.519531 8.652344 13.972656 10.496094 15.820312 C 10.792969 16.117188 10.792969 16.601562 10.496094 16.898438 C 10.347656 17.046875 10.152344 17.121094 9.957031 17.121094 " fill-opacity="1" fill-rule="nonzero"/></g><g clip-path="url(#id18)"><path fill="#ffde59" d="M 24.84375 17.121094 C 24.652344 17.121094 24.457031 17.046875 24.308594 16.898438 C 24.007812 16.601562 24.007812 16.117188 24.308594 15.820312 C 28.113281 12.011719 28.113281 5.808594 24.308594 2 C 24.007812 1.703125 24.007812 1.21875 24.308594 0.921875 C 24.605469 0.625 25.085938 0.625 25.382812 0.921875 C 29.785156 5.328125 29.785156 12.496094 25.382812 16.898438 C 25.234375 17.046875 25.039062 17.121094 24.84375 17.121094 " fill-opacity="1" fill-rule="nonzero"/></g><g clip-path="url(#id19)"><path fill="#ffde59" d="M 4.167969 17.121094 C 3.972656 17.121094 3.777344 17.046875 3.628906 16.898438 C -0.773438 12.496094 -0.773438 5.328125 3.628906 0.921875 C 3.925781 0.625 4.40625 0.625 4.703125 0.921875 C 5.003906 1.21875 5.003906 1.703125 4.703125 2 C 0.898438 5.808594 0.898438 12.011719 4.703125 15.820312 C 5.003906 16.117188 5.003906 16.601562 4.703125 16.898438 C 4.554688 17.046875 4.363281 17.121094 4.167969 17.121094 " fill-opacity="1" fill-rule="nonzero"/></g><g clip-path="url(#id20)"><path fill="#ffde59" d="M 30.636719 17.121094 C 30.441406 17.121094 30.246094 17.046875 30.097656 16.898438 C 29.800781 16.601562 29.800781 16.117188 30.097656 15.820312 C 31.941406 13.972656 32.957031 11.519531 32.957031 8.910156 C 32.957031 6.300781 31.941406 3.84375 30.097656 2 C 29.800781 1.703125 29.800781 1.21875 30.097656 0.921875 C 30.394531 0.625 30.875 0.625 31.171875 0.921875 C 33.308594 3.054688 34.480469 5.894531 34.480469 8.910156 C 34.480469 11.925781 33.308594 14.765625 31.171875 16.898438 C 31.023438 17.046875 30.828125 17.121094 30.636719 17.121094 " fill-opacity="1" fill-rule="nonzero"/></g></g></g></g><g clip-path="url(#id22)"><path fill="#ffde59" d="M 575.199219 203.222656 L 583.011719 203.222656 L 597.539062 212.71875 C 597.773438 212.875 598.015625 212.882812 598.265625 212.75 C 598.511719 212.613281 598.636719 212.40625 598.636719 212.121094 L 598.636719 180.730469 C 598.636719 180.445312 598.511719 180.238281 598.265625 180.101562 C 598.019531 179.96875 597.777344 179.976562 597.539062 180.128906 L 583.011719 189.601562 L 575.199219 189.601562 C 575.003906 189.601562 574.835938 189.671875 574.695312 189.808594 C 574.558594 189.949219 574.488281 190.117188 574.488281 190.3125 L 574.488281 202.507812 C 574.488281 202.707031 574.558594 202.875 574.695312 203.011719 C 574.835938 203.152344 575.003906 203.222656 575.199219 203.222656 Z M 597.214844 210.808594 L 595.523438 209.699219 C 595.523438 209.691406 595.523438 209.6875 595.523438 209.679688 L 595.523438 183.363281 C 595.523438 183.296875 595.507812 183.230469 595.488281 183.167969 L 597.214844 182.042969 Z M 575.910156 191.027344 L 582.511719 191.027344 L 582.511719 196.425781 C 582.511719 196.621094 582.582031 196.789062 582.71875 196.929688 C 582.859375 197.070312 583.027344 197.140625 583.222656 197.140625 C 583.417969 197.140625 583.585938 197.070312 583.722656 196.929688 C 583.863281 196.789062 583.933594 196.621094 583.933594 196.425781 L 583.933594 190.703125 L 594.105469 184.070312 L 594.105469 208.773438 L 583.609375 201.910156 C 583.492188 201.832031 583.363281 201.792969 583.222656 201.792969 L 575.910156 201.792969 Z M 575.910156 191.027344 " fill-opacity="1" fill-rule="nonzero"/></g><g clip-path="url(#id23)"><path fill="#ffde59" d="M 603.210938 194.484375 C 603.210938 194.289062 603.140625 194.121094 603.003906 193.980469 C 602.863281 193.84375 602.695312 193.773438 602.5 193.773438 C 602.304688 193.773438 602.136719 193.84375 601.996094 193.980469 C 601.859375 194.121094 601.789062 194.289062 601.789062 194.484375 L 601.789062 195.808594 L 600.472656 195.808594 C 600.277344 195.808594 600.109375 195.878906 599.972656 196.015625 C 599.832031 196.15625 599.765625 196.324219 599.765625 196.519531 C 599.765625 196.71875 599.832031 196.886719 599.972656 197.027344 C 600.109375 197.164062 600.277344 197.234375 600.472656 197.234375 L 601.789062 197.234375 L 601.789062 198.554688 C 601.789062 198.753906 601.859375 198.921875 601.996094 199.0625 C 602.136719 199.199219 602.304688 199.269531 602.5 199.269531 C 602.695312 199.269531 602.863281 199.199219 603.003906 199.0625 C 603.140625 198.921875 603.210938 198.753906 603.210938 198.554688 L 603.210938 197.234375 L 604.523438 197.234375 C 604.722656 197.234375 604.886719 197.164062 605.027344 197.027344 C 605.164062 196.886719 605.234375 196.71875 605.234375 196.519531 C 605.234375 196.324219 605.164062 196.15625 605.027344 196.015625 C 604.886719 195.878906 604.722656 195.808594 604.523438 195.808594 L 603.210938 195.808594 Z M 603.210938 194.484375 " fill-opacity="1" fill-rule="nonzero"/></g><g mask="url(#id24)"><g transform="matrix(1, 0, 0, 1, 609, 180)"><g clip-path="url(#id25)"><g fill="#ffffff" fill-opacity="1"><g transform="translate(0.373354, 23.275738)"><g><path d="M 9 0 L 9 -10.625 L 8.859375 -10.625 L 7.265625 0 L 4.859375 0 L 3.296875 -10.625 L 3.140625 -10.625 L 3.140625 0 L 0.859375 0 L 0.859375 -13.734375 L 4.59375 -13.734375 L 6.078125 -3.609375 L 6.203125 -3.609375 L 7.6875 -13.734375 L 11.328125 -13.734375 L 11.328125 0 Z M 9 0 "/></g></g></g><g fill="#ffffff" fill-opacity="1"><g transform="translate(12.570667, 23.275738)"><g><path d="M 5.828125 0 L 5.375 -3.015625 L 3.015625 -3.015625 L 2.5625 0 L 0.1875 0 L 2.4375 -13.734375 L 5.984375 -13.734375 L 8.265625 0 Z M 4.25 -11.265625 L 4.140625 -11.265625 L 3.25 -5.125 L 5.125 -5.125 Z M 4.25 -11.265625 "/></g></g></g><g fill="#ffffff" fill-opacity="1"><g transform="translate(20.995004, 23.275738)"><g><path d="M 0.90625 0 L 0.90625 -13.734375 L 3.296875 -13.734375 L 3.296875 0 Z M 0.90625 0 "/></g></g></g><g fill="#ffffff" fill-opacity="1"><g transform="translate(25.18721, 23.275738)"><g><path d="M 3.578125 0.15625 C 3.109375 0.15625 2.597656 0.125 2.046875 0.0625 C 1.503906 0.0078125 1.039062 -0.0703125 0.65625 -0.1875 L 0.65625 -2.15625 C 1.625 -2.0625 2.378906 -2.015625 2.921875 -2.015625 C 3.285156 -2.015625 3.566406 -2.035156 3.765625 -2.078125 C 3.972656 -2.128906 4.132812 -2.222656 4.25 -2.359375 C 4.4375 -2.585938 4.53125 -3.078125 4.53125 -3.828125 C 4.53125 -4.421875 4.503906 -4.835938 4.453125 -5.078125 C 4.410156 -5.316406 4.316406 -5.488281 4.171875 -5.59375 C 4.023438 -5.707031 3.757812 -5.804688 3.375 -5.890625 L 1.78125 -6.234375 C 1.269531 -6.335938 0.921875 -6.679688 0.734375 -7.265625 C 0.546875 -7.847656 0.453125 -8.703125 0.453125 -9.828125 C 0.453125 -10.898438 0.585938 -11.734375 0.859375 -12.328125 C 1.128906 -12.921875 1.507812 -13.328125 2 -13.546875 C 2.5 -13.773438 3.144531 -13.890625 3.9375 -13.890625 C 4.53125 -13.890625 5.070312 -13.847656 5.5625 -13.765625 C 6.050781 -13.691406 6.359375 -13.628906 6.484375 -13.578125 L 6.484375 -11.578125 C 6.359375 -11.609375 6.117188 -11.640625 5.765625 -11.671875 C 5.410156 -11.703125 5.03125 -11.71875 4.625 -11.71875 C 4.207031 -11.71875 3.878906 -11.6875 3.640625 -11.625 C 3.410156 -11.570312 3.242188 -11.476562 3.140625 -11.34375 C 3.023438 -11.207031 2.953125 -11.03125 2.921875 -10.8125 C 2.890625 -10.601562 2.875 -10.300781 2.875 -9.90625 C 2.875 -9.4375 2.890625 -9.097656 2.921875 -8.890625 C 2.953125 -8.691406 3.019531 -8.546875 3.125 -8.453125 C 3.238281 -8.359375 3.414062 -8.285156 3.65625 -8.234375 L 5.03125 -7.90625 C 5.445312 -7.820312 5.789062 -7.679688 6.0625 -7.484375 C 6.332031 -7.285156 6.546875 -6.941406 6.703125 -6.453125 C 6.847656 -5.972656 6.921875 -5.238281 6.921875 -4.25 C 6.921875 -3.039062 6.796875 -2.113281 6.546875 -1.46875 C 6.304688 -0.832031 5.945312 -0.398438 5.46875 -0.171875 C 5 0.046875 4.367188 0.15625 3.578125 0.15625 Z M 3.578125 0.15625 "/></g></g></g><g fill="#ffffff" fill-opacity="1"><g transform="translate(32.533552, 23.275738)"><g/></g></g><g fill="#ffffff" fill-opacity="1"><g transform="translate(35.527983, 23.275738)"><g><path d="M 0.859375 0 L 0.859375 -13.734375 L 6.078125 -13.734375 L 6.078125 -11.5625 L 3.28125 -11.5625 L 3.28125 -7.75 L 5.75 -7.75 L 5.75 -5.578125 L 3.28125 -5.578125 L 3.28125 0 Z M 0.859375 0 "/></g></g></g><g fill="#ffffff" fill-opacity="1"><g transform="translate(41.936064, 23.275738)"><g><path d="M 0.90625 0 L 0.90625 -13.734375 L 3.296875 -13.734375 L 3.296875 0 Z M 0.90625 0 "/></g></g></g><g fill="#ffffff" fill-opacity="1"><g transform="translate(46.12827, 23.275738)"><g><path d="M 5.765625 0 L 3.234375 -7.75 L 3.15625 -7.75 L 3.15625 0 L 0.859375 0 L 0.859375 -13.734375 L 3.140625 -13.734375 L 5.515625 -6.53125 L 5.625 -6.53125 L 5.625 -13.734375 L 7.90625 -13.734375 L 7.90625 0 Z M 5.765625 0 "/></g></g></g><g fill="#ffffff" fill-opacity="1"><g transform="translate(54.89197, 23.275738)"><g><path d="M 4.21875 0.15625 C 3.050781 0.15625 2.222656 -0.0390625 1.734375 -0.4375 C 1.253906 -0.832031 0.953125 -1.476562 0.828125 -2.375 C 0.703125 -3.28125 0.640625 -4.78125 0.640625 -6.875 C 0.640625 -8.957031 0.703125 -10.445312 0.828125 -11.34375 C 0.953125 -12.25 1.253906 -12.898438 1.734375 -13.296875 C 2.222656 -13.691406 3.050781 -13.890625 4.21875 -13.890625 C 5.375 -13.890625 6.195312 -13.691406 6.6875 -13.296875 C 7.175781 -12.898438 7.484375 -12.25 7.609375 -11.34375 C 7.742188 -10.445312 7.8125 -8.957031 7.8125 -6.875 C 7.8125 -4.78125 7.742188 -3.28125 7.609375 -2.375 C 7.484375 -1.476562 7.175781 -0.832031 6.6875 -0.4375 C 6.195312 -0.0390625 5.375 0.15625 4.21875 0.15625 Z M 4.21875 -2.015625 C 4.613281 -2.015625 4.882812 -2.09375 5.03125 -2.25 C 5.175781 -2.414062 5.269531 -2.8125 5.3125 -3.4375 C 5.363281 -4.0625 5.390625 -5.207031 5.390625 -6.875 C 5.390625 -8.53125 5.363281 -9.671875 5.3125 -10.296875 C 5.269531 -10.929688 5.175781 -11.328125 5.03125 -11.484375 C 4.882812 -11.640625 4.613281 -11.71875 4.21875 -11.71875 C 3.8125 -11.71875 3.535156 -11.640625 3.390625 -11.484375 C 3.253906 -11.328125 3.160156 -10.929688 3.109375 -10.296875 C 3.054688 -9.660156 3.03125 -8.519531 3.03125 -6.875 C 3.03125 -5.21875 3.054688 -4.070312 3.109375 -3.4375 C 3.160156 -2.8125 3.253906 -2.414062 3.390625 -2.25 C 3.535156 -2.09375 3.8125 -2.015625 4.21875 -2.015625 Z M 4.21875 -2.015625 "/></g></g></g><g fill="#ffffff" fill-opacity="1"><g transform="translate(63.336269, 23.275738)"><g/></g></g><g fill="#ffffff" fill-opacity="1"><g transform="translate(66.330699, 23.275738)"><g><path d="M 8.953125 -7.921875 L 8.953125 -5.953125 L 7.671875 -5.953125 L 7.671875 -0.1875 C 7.203125 -0.09375 6.664062 -0.015625 6.0625 0.046875 C 5.457031 0.117188 4.921875 0.15625 4.453125 0.15625 C 3.523438 0.15625 2.789062 0.0351562 2.25 -0.203125 C 1.707031 -0.453125 1.3125 -0.847656 1.0625 -1.390625 C 0.820312 -1.941406 0.703125 -2.679688 0.703125 -3.609375 C 0.703125 -4.703125 0.835938 -5.488281 1.109375 -5.96875 C 1.378906 -6.457031 1.816406 -6.789062 2.421875 -6.96875 L 2.421875 -7.046875 C 1.867188 -7.222656 1.457031 -7.566406 1.1875 -8.078125 C 0.925781 -8.597656 0.796875 -9.359375 0.796875 -10.359375 C 0.796875 -11.679688 1.097656 -12.597656 1.703125 -13.109375 C 2.304688 -13.628906 3.273438 -13.890625 4.609375 -13.890625 C 5.046875 -13.890625 5.546875 -13.859375 6.109375 -13.796875 C 6.679688 -13.734375 7.203125 -13.65625 7.671875 -13.5625 L 7.671875 -11.78125 C 6.921875 -11.875 6.148438 -11.921875 5.359375 -11.921875 C 4.648438 -11.921875 4.144531 -11.875 3.84375 -11.78125 C 3.539062 -11.6875 3.335938 -11.503906 3.234375 -11.234375 C 3.140625 -10.972656 3.09375 -10.535156 3.09375 -9.921875 C 3.09375 -9.160156 3.160156 -8.632812 3.296875 -8.34375 C 3.441406 -8.0625 3.753906 -7.921875 4.234375 -7.921875 L 4.625 -7.921875 L 4.625 -5.953125 L 4.234375 -5.953125 C 3.890625 -5.953125 3.625 -5.894531 3.4375 -5.78125 C 3.257812 -5.664062 3.132812 -5.460938 3.0625 -5.171875 C 2.988281 -4.878906 2.953125 -4.441406 2.953125 -3.859375 C 2.953125 -3.234375 3.003906 -2.78125 3.109375 -2.5 C 3.222656 -2.21875 3.40625 -2.03125 3.65625 -1.9375 C 3.914062 -1.851562 4.332031 -1.8125 4.90625 -1.8125 C 5.125 -1.8125 5.289062 -1.820312 5.40625 -1.84375 L 5.40625 -7.921875 Z M 8.953125 -7.921875 "/></g></g></g><g fill="#ffffff" fill-opacity="1"><g transform="translate(75.533582, 23.275738)"><g/></g></g><g fill="#ffffff" fill-opacity="1"><g transform="translate(78.528012, 23.275738)"><g><path d="M 9 0 L 9 -10.625 L 8.859375 -10.625 L 7.265625 0 L 4.859375 0 L 3.296875 -10.625 L 3.140625 -10.625 L 3.140625 0 L 0.859375 0 L 0.859375 -13.734375 L 4.59375 -13.734375 L 6.078125 -3.609375 L 6.203125 -3.609375 L 7.6875 -13.734375 L 11.328125 -13.734375 L 11.328125 0 Z M 9 0 "/></g></g></g><g fill="#ffffff" fill-opacity="1"><g transform="translate(90.725325, 23.275738)"><g><path d="M 5.828125 0 L 5.375 -3.015625 L 3.015625 -3.015625 L 2.5625 0 L 0.1875 0 L 2.4375 -13.734375 L 5.984375 -13.734375 L 8.265625 0 Z M 4.25 -11.265625 L 4.140625 -11.265625 L 3.25 -5.125 L 5.125 -5.125 Z M 4.25 -11.265625 "/></g></g></g><g fill="#ffffff" fill-opacity="1"><g transform="translate(99.149662, 23.275738)"><g><path d="M 0.90625 0 L 0.90625 -13.734375 L 3.296875 -13.734375 L 3.296875 0 Z M 0.90625 0 "/></g></g></g><g fill="#ffffff" fill-opacity="1"><g transform="translate(103.341868, 23.275738)"><g><path d="M 3.578125 0.15625 C 3.109375 0.15625 2.597656 0.125 2.046875 0.0625 C 1.503906 0.0078125 1.039062 -0.0703125 0.65625 -0.1875 L 0.65625 -2.15625 C 1.625 -2.0625 2.378906 -2.015625 2.921875 -2.015625 C 3.285156 -2.015625 3.566406 -2.035156 3.765625 -2.078125 C 3.972656 -2.128906 4.132812 -2.222656 4.25 -2.359375 C 4.4375 -2.585938 4.53125 -3.078125 4.53125 -3.828125 C 4.53125 -4.421875 4.503906 -4.835938 4.453125 -5.078125 C 4.410156 -5.316406 4.316406 -5.488281 4.171875 -5.59375 C 4.023438 -5.707031 3.757812 -5.804688 3.375 -5.890625 L 1.78125 -6.234375 C 1.269531 -6.335938 0.921875 -6.679688 0.734375 -7.265625 C 0.546875 -7.847656 0.453125 -8.703125 0.453125 -9.828125 C 0.453125 -10.898438 0.585938 -11.734375 0.859375 -12.328125 C 1.128906 -12.921875 1.507812 -13.328125 2 -13.546875 C 2.5 -13.773438 3.144531 -13.890625 3.9375 -13.890625 C 4.53125 -13.890625 5.070312 -13.847656 5.5625 -13.765625 C 6.050781 -13.691406 6.359375 -13.628906 6.484375 -13.578125 L 6.484375 -11.578125 C 6.359375 -11.609375 6.117188 -11.640625 5.765625 -11.671875 C 5.410156 -11.703125 5.03125 -11.71875 4.625 -11.71875 C 4.207031 -11.71875 3.878906 -11.6875 3.640625 -11.625 C 3.410156 -11.570312 3.242188 -11.476562 3.140625 -11.34375 C 3.023438 -11.207031 2.953125 -11.03125 2.921875 -10.8125 C 2.890625 -10.601562 2.875 -10.300781 2.875 -9.90625 C 2.875 -9.4375 2.890625 -9.097656 2.921875 -8.890625 C 2.953125 -8.691406 3.019531 -8.546875 3.125 -8.453125 C 3.238281 -8.359375 3.414062 -8.285156 3.65625 -8.234375 L 5.03125 -7.90625 C 5.445312 -7.820312 5.789062 -7.679688 6.0625 -7.484375 C 6.332031 -7.285156 6.546875 -6.941406 6.703125 -6.453125 C 6.847656 -5.972656 6.921875 -5.238281 6.921875 -4.25 C 6.921875 -3.039062 6.796875 -2.113281 6.546875 -1.46875 C 6.304688 -0.832031 5.945312 -0.398438 5.46875 -0.171875 C 5 0.046875 4.367188 0.15625 3.578125 0.15625 Z M 3.578125 0.15625 "/></g></g></g><g fill="#ffffff" fill-opacity="1"><g transform="translate(110.68821, 23.275738)"><g/></g></g><g fill="#ffffff" fill-opacity="1"><g transform="translate(113.682641, 23.275738)"><g><path d="M 5.828125 0 L 5.375 -3.015625 L 3.015625 -3.015625 L 2.5625 0 L 0.1875 0 L 2.4375 -13.734375 L 5.984375 -13.734375 L 8.265625 0 Z M 4.25 -11.265625 L 4.140625 -11.265625 L 3.25 -5.125 L 5.125 -5.125 Z M 4.25 -11.265625 "/></g></g></g><g fill="#ffffff" fill-opacity="1"><g transform="translate(122.106977, 23.275738)"><g><path d="M 0.859375 0 L 0.859375 -13.734375 L 3.28125 -13.734375 L 3.28125 -2.21875 L 6.03125 -2.21875 L 6.03125 0 Z M 0.859375 0 "/></g></g></g><g fill="#ffffff" fill-opacity="1"><g transform="translate(128.315429, 23.275738)"><g><path d="M 2.28125 0 L 2.28125 -11.515625 L 0.140625 -11.515625 L 0.140625 -13.734375 L 6.828125 -13.734375 L 6.828125 -11.515625 L 4.6875 -11.515625 L 4.6875 0 Z M 2.28125 0 "/></g></g></g><g fill="#ffffff" fill-opacity="1"><g transform="translate(135.282475, 23.275738)"><g><path d="M 4.21875 0.15625 C 3.050781 0.15625 2.222656 -0.0390625 1.734375 -0.4375 C 1.253906 -0.832031 0.953125 -1.476562 0.828125 -2.375 C 0.703125 -3.28125 0.640625 -4.78125 0.640625 -6.875 C 0.640625 -8.957031 0.703125 -10.445312 0.828125 -11.34375 C 0.953125 -12.25 1.253906 -12.898438 1.734375 -13.296875 C 2.222656 -13.691406 3.050781 -13.890625 4.21875 -13.890625 C 5.375 -13.890625 6.195312 -13.691406 6.6875 -13.296875 C 7.175781 -12.898438 7.484375 -12.25 7.609375 -11.34375 C 7.742188 -10.445312 7.8125 -8.957031 7.8125 -6.875 C 7.8125 -4.78125 7.742188 -3.28125 7.609375 -2.375 C 7.484375 -1.476562 7.175781 -0.832031 6.6875 -0.4375 C 6.195312 -0.0390625 5.375 0.15625 4.21875 0.15625 Z M 4.21875 -2.015625 C 4.613281 -2.015625 4.882812 -2.09375 5.03125 -2.25 C 5.175781 -2.414062 5.269531 -2.8125 5.3125 -3.4375 C 5.363281 -4.0625 5.390625 -5.207031 5.390625 -6.875 C 5.390625 -8.53125 5.363281 -9.671875 5.3125 -10.296875 C 5.269531 -10.929688 5.175781 -11.328125 5.03125 -11.484375 C 4.882812 -11.640625 4.613281 -11.71875 4.21875 -11.71875 C 3.8125 -11.71875 3.535156 -11.640625 3.390625 -11.484375 C 3.253906 -11.328125 3.160156 -10.929688 3.109375 -10.296875 C 3.054688 -9.660156 3.03125 -8.519531 3.03125 -6.875 C 3.03125 -5.21875 3.054688 -4.070312 3.109375 -3.4375 C 3.160156 -2.8125 3.253906 -2.414062 3.390625 -2.25 C 3.535156 -2.09375 3.8125 -2.015625 4.21875 -2.015625 Z M 4.21875 -2.015625 "/></g></g></g><g fill="#ffffff" fill-opacity="1"><g transform="translate(143.726774, 23.275738)"><g><path d="M 1.5625 -4.171875 C 1.101562 -8.722656 0.875 -11.441406 0.875 -12.328125 L 0.875 -13.734375 L 3.65625 -13.734375 L 3.65625 -12.328125 C 3.65625 -11.847656 3.585938 -10.820312 3.453125 -9.25 C 3.316406 -7.6875 3.15625 -5.992188 2.96875 -4.171875 Z M 1.03125 0 L 1.03125 -2.421875 L 3.5 -2.421875 L 3.5 0 Z M 1.03125 0 "/></g></g></g></g></g></g><g fill="#ffffff" fill-opacity="1"><g transform="translate(353.644776, 315.251183)"><g><path d="M 0.4375 -6.859375 L 5.3125 -6.859375 L 5.3125 -5.390625 L 2.171875 -5.390625 L 2.171875 -4.109375 L 4.46875 -4.109375 L 4.46875 -2.75 L 2.171875 -2.75 L 2.171875 0 L 0.4375 0 Z M 0.4375 -6.859375 "/></g></g></g><g fill="#ffffff" fill-opacity="1"><g transform="translate(360.53663, 315.251183)"><g><path d="M 0.4375 -6.859375 L 3.515625 -6.859375 C 4.328125 -6.859375 4.957031 -6.65625 5.40625 -6.25 C 5.863281 -5.84375 6.09375 -5.257812 6.09375 -4.5 C 6.09375 -3.988281 5.976562 -3.550781 5.75 -3.1875 C 5.53125 -2.832031 5.21875 -2.566406 4.8125 -2.390625 L 6.03125 0 L 4.25 0 L 3.15625 -2.15625 L 2.171875 -2.15625 L 2.171875 0 L 0.4375 0 Z M 3.21875 -3.609375 C 3.5625 -3.609375 3.828125 -3.675781 4.015625 -3.8125 C 4.210938 -3.945312 4.3125 -4.175781 4.3125 -4.5 C 4.3125 -4.84375 4.21875 -5.078125 4.03125 -5.203125 C 3.84375 -5.328125 3.570312 -5.390625 3.21875 -5.390625 L 2.171875 -5.390625 L 2.171875 -3.609375 Z M 3.21875 -3.609375 "/></g></g></g><g fill="#ffffff" fill-opacity="1"><g transform="translate(368.41012, 315.251183)"><g><path d="M 0.4375 -6.859375 L 5.3125 -6.859375 L 5.3125 -5.390625 L 2.171875 -5.390625 L 2.171875 -4.109375 L 4.46875 -4.109375 L 4.46875 -2.75 L 2.171875 -2.75 L 2.171875 -1.46875 L 5.3125 -1.46875 L 5.3125 0 L 0.4375 0 Z M 0.4375 -6.859375 "/></g></g></g><g fill="#ffffff" fill-opacity="1"><g transform="translate(375.498302, 315.251183)"><g><path d="M 2.03125 -5.390625 L 0.09375 -5.390625 L 0.09375 -6.859375 L 5.703125 -6.859375 L 5.703125 -5.390625 L 3.765625 -5.390625 L 3.765625 0 L 2.03125 0 Z M 2.03125 -5.390625 "/></g></g></g><g fill="#ffffff" fill-opacity="1"><g transform="translate(382.841708, 315.251183)"><g><path d="M 0.4375 -6.859375 L 5.3125 -6.859375 L 5.3125 -5.390625 L 2.171875 -5.390625 L 2.171875 -4.109375 L 4.46875 -4.109375 L 4.46875 -2.75 L 2.171875 -2.75 L 2.171875 -1.46875 L 5.3125 -1.46875 L 5.3125 0 L 0.4375 0 Z M 0.4375 -6.859375 "/></g></g></g><g fill="#ffffff" fill-opacity="1"><g transform="translate(389.92989, 315.251183)"><g/></g></g><g fill="#ffffff" fill-opacity="1"><g transform="translate(394.799578, 315.251183)"><g><path d="M 3.984375 0.140625 C 3.234375 0.140625 2.578125 0 2.015625 -0.28125 C 1.453125 -0.570312 1.015625 -0.984375 0.703125 -1.515625 C 0.398438 -2.054688 0.25 -2.691406 0.25 -3.421875 C 0.25 -4.148438 0.398438 -4.785156 0.703125 -5.328125 C 1.015625 -5.867188 1.453125 -6.28125 2.015625 -6.5625 C 2.578125 -6.851562 3.234375 -7 3.984375 -7 C 4.484375 -7 4.921875 -6.953125 5.296875 -6.859375 C 5.679688 -6.765625 6.039062 -6.613281 6.375 -6.40625 L 6.375 -4.765625 C 6.082031 -4.992188 5.753906 -5.15625 5.390625 -5.25 C 5.023438 -5.351562 4.609375 -5.40625 4.140625 -5.40625 C 3.734375 -5.40625 3.367188 -5.320312 3.046875 -5.15625 C 2.734375 -5 2.484375 -4.769531 2.296875 -4.46875 C 2.117188 -4.164062 2.03125 -3.816406 2.03125 -3.421875 C 2.03125 -2.804688 2.210938 -2.316406 2.578125 -1.953125 C 2.941406 -1.585938 3.429688 -1.40625 4.046875 -1.40625 C 4.398438 -1.40625 4.691406 -1.46875 4.921875 -1.59375 L 4.921875 -2.6875 L 3.875 -2.6875 L 3.875 -3.90625 L 6.578125 -3.90625 L 6.578125 -0.484375 C 5.878906 -0.0664062 5.015625 0.140625 3.984375 0.140625 Z M 3.984375 0.140625 "/></g></g></g><g fill="#ffffff" fill-opacity="1"><g transform="translate(403.154069, 315.251183)"><g><path d="M 0.4375 -6.859375 L 3.515625 -6.859375 C 4.328125 -6.859375 4.957031 -6.65625 5.40625 -6.25 C 5.863281 -5.84375 6.09375 -5.257812 6.09375 -4.5 C 6.09375 -3.988281 5.976562 -3.550781 5.75 -3.1875 C 5.53125 -2.832031 5.21875 -2.566406 4.8125 -2.390625 L 6.03125 0 L 4.25 0 L 3.15625 -2.15625 L 2.171875 -2.15625 L 2.171875 0 L 0.4375 0 Z M 3.21875 -3.609375 C 3.5625 -3.609375 3.828125 -3.675781 4.015625 -3.8125 C 4.210938 -3.945312 4.3125 -4.175781 4.3125 -4.5 C 4.3125 -4.84375 4.21875 -5.078125 4.03125 -5.203125 C 3.84375 -5.328125 3.570312 -5.390625 3.21875 -5.390625 L 2.171875 -5.390625 L 2.171875 -3.609375 Z M 3.21875 -3.609375 "/></g></g></g><g fill="#ffffff" fill-opacity="1"><g transform="translate(411.027561, 315.251183)"><g><path d="M 3.765625 -9.03125 L 5.578125 -9.03125 L 4.6875 -7.28125 L 3.078125 -7.28125 Z M 3 -6.859375 L 4.703125 -6.859375 L 7.4375 0 L 5.65625 0 L 5.109375 -1.40625 L 2.578125 -1.40625 L 2.03125 0 L 0.25 0 Z M 4.6875 -2.75 L 3.84375 -5.046875 L 3 -2.75 Z M 4.6875 -2.75 "/></g></g></g><g fill="#ffffff" fill-opacity="1"><g transform="translate(420.245893, 315.251183)"><g><path d="M 2.03125 -5.390625 L 0.09375 -5.390625 L 0.09375 -6.859375 L 5.703125 -6.859375 L 5.703125 -5.390625 L 3.765625 -5.390625 L 3.765625 0 L 2.03125 0 Z M 2.03125 -5.390625 "/></g></g></g><g fill="#ffffff" fill-opacity="1"><g transform="translate(427.589301, 315.251183)"><g><path d="M 0.4375 -6.859375 L 2.171875 -6.859375 L 2.171875 0 L 0.4375 0 Z M 0.4375 -6.859375 "/></g></g></g><g fill="#ffffff" fill-opacity="1"><g transform="translate(431.742399, 315.251183)"><g><path d="M 2.578125 0.140625 C 2.148438 0.140625 1.722656 0.0976562 1.296875 0.015625 C 0.867188 -0.0546875 0.519531 -0.164062 0.25 -0.3125 L 0.25 -1.875 C 0.601562 -1.6875 0.96875 -1.546875 1.34375 -1.453125 C 1.726562 -1.367188 2.09375 -1.328125 2.4375 -1.328125 C 2.757812 -1.328125 3.003906 -1.375 3.171875 -1.46875 C 3.335938 -1.570312 3.421875 -1.710938 3.421875 -1.890625 C 3.421875 -2.023438 3.375 -2.144531 3.28125 -2.25 C 3.195312 -2.351562 3.066406 -2.445312 2.890625 -2.53125 C 2.722656 -2.613281 2.457031 -2.734375 2.09375 -2.890625 C 1.457031 -3.148438 0.992188 -3.441406 0.703125 -3.765625 C 0.421875 -4.097656 0.28125 -4.503906 0.28125 -4.984375 C 0.28125 -5.378906 0.390625 -5.726562 0.609375 -6.03125 C 0.828125 -6.34375 1.132812 -6.582031 1.53125 -6.75 C 1.925781 -6.914062 2.378906 -7 2.890625 -7 C 3.304688 -7 3.675781 -6.96875 4 -6.90625 C 4.332031 -6.84375 4.648438 -6.738281 4.953125 -6.59375 L 4.953125 -5.078125 C 4.367188 -5.378906 3.785156 -5.53125 3.203125 -5.53125 C 2.890625 -5.53125 2.640625 -5.476562 2.453125 -5.375 C 2.265625 -5.269531 2.171875 -5.125 2.171875 -4.9375 C 2.171875 -4.75 2.265625 -4.59375 2.453125 -4.46875 C 2.648438 -4.351562 3.003906 -4.195312 3.515625 -4 C 3.972656 -3.800781 4.332031 -3.609375 4.59375 -3.421875 C 4.851562 -3.242188 5.039062 -3.035156 5.15625 -2.796875 C 5.28125 -2.554688 5.34375 -2.25 5.34375 -1.875 C 5.34375 -1.238281 5.109375 -0.742188 4.640625 -0.390625 C 4.179688 -0.0351562 3.492188 0.140625 2.578125 0.140625 Z M 2.578125 0.140625 "/></g></g></g><g fill="#ffffff" fill-opacity="1"><g transform="translate(438.860031, 315.251183)"><g/></g></g><g fill="#ffffff" fill-opacity="1"><g transform="translate(443.729723, 315.251183)"><g><path d="M 0.4375 -6.859375 L 3.46875 -6.859375 C 4.257812 -6.859375 4.894531 -6.648438 5.375 -6.234375 C 5.851562 -5.816406 6.09375 -5.226562 6.09375 -4.46875 C 6.09375 -3.695312 5.851562 -3.097656 5.375 -2.671875 C 4.90625 -2.253906 4.269531 -2.046875 3.46875 -2.046875 L 2.171875 -2.046875 L 2.171875 0 L 0.4375 0 Z M 3.1875 -3.515625 C 3.53125 -3.515625 3.800781 -3.582031 4 -3.71875 C 4.207031 -3.863281 4.3125 -4.113281 4.3125 -4.46875 C 4.3125 -4.820312 4.210938 -5.0625 4.015625 -5.1875 C 3.816406 -5.320312 3.539062 -5.390625 3.1875 -5.390625 L 2.171875 -5.390625 L 2.171875 -3.515625 Z M 3.1875 -3.515625 "/></g></g></g><g fill="#ffffff" fill-opacity="1"><g transform="translate(451.505043, 315.251183)"><g><path d="M 3 -6.859375 L 4.703125 -6.859375 L 7.4375 0 L 5.65625 0 L 5.109375 -1.40625 L 2.578125 -1.40625 L 2.03125 0 L 0.25 0 Z M 4.6875 -2.75 L 3.84375 -5.046875 L 3 -2.75 Z M 4.6875 -2.75 "/></g></g></g><g fill="#ffffff" fill-opacity="1"><g transform="translate(460.723374, 315.251183)"><g><path d="M 0.4375 -6.859375 L 3.515625 -6.859375 C 4.328125 -6.859375 4.957031 -6.65625 5.40625 -6.25 C 5.863281 -5.84375 6.09375 -5.257812 6.09375 -4.5 C 6.09375 -3.988281 5.976562 -3.550781 5.75 -3.1875 C 5.53125 -2.832031 5.21875 -2.566406 4.8125 -2.390625 L 6.03125 0 L 4.25 0 L 3.15625 -2.15625 L 2.171875 -2.15625 L 2.171875 0 L 0.4375 0 Z M 3.21875 -3.609375 C 3.5625 -3.609375 3.828125 -3.675781 4.015625 -3.8125 C 4.210938 -3.945312 4.3125 -4.175781 4.3125 -4.5 C 4.3125 -4.84375 4.21875 -5.078125 4.03125 -5.203125 C 3.84375 -5.328125 3.570312 -5.390625 3.21875 -5.390625 L 2.171875 -5.390625 L 2.171875 -3.609375 Z M 3.21875 -3.609375 "/></g></g></g><g fill="#ffffff" fill-opacity="1"><g transform="translate(468.596866, 315.251183)"><g><path d="M 3 -6.859375 L 4.703125 -6.859375 L 7.4375 0 L 5.65625 0 L 5.109375 -1.40625 L 2.578125 -1.40625 L 2.03125 0 L 0.25 0 Z M 4.6875 -2.75 L 3.84375 -5.046875 L 3 -2.75 Z M 4.6875 -2.75 "/></g></g></g><g fill="#ffffff" fill-opacity="1"><g transform="translate(477.815198, 315.251183)"><g/></g></g><g fill="#ffffff" fill-opacity="1"><g transform="translate(482.684889, 315.251183)"><g><path d="M 2.03125 -5.390625 L 0.09375 -5.390625 L 0.09375 -6.859375 L 5.703125 -6.859375 L 5.703125 -5.390625 L 3.765625 -5.390625 L 3.765625 0 L 2.03125 0 Z M 2.03125 -5.390625 "/></g></g></g><g fill="#ffffff" fill-opacity="1"><g transform="translate(490.028297, 315.251183)"><g><path d="M 3.9375 0.140625 C 3.238281 0.140625 2.609375 -0.00390625 2.046875 -0.296875 C 1.492188 -0.597656 1.054688 -1.019531 0.734375 -1.5625 C 0.410156 -2.101562 0.25 -2.722656 0.25 -3.421875 C 0.25 -4.117188 0.410156 -4.738281 0.734375 -5.28125 C 1.054688 -5.832031 1.492188 -6.253906 2.046875 -6.546875 C 2.609375 -6.847656 3.238281 -7 3.9375 -7 C 4.625 -7 5.242188 -6.847656 5.796875 -6.546875 C 6.359375 -6.253906 6.800781 -5.832031 7.125 -5.28125 C 7.445312 -4.738281 7.609375 -4.117188 7.609375 -3.421875 C 7.609375 -2.722656 7.445312 -2.101562 7.125 -1.5625 C 6.800781 -1.019531 6.359375 -0.597656 5.796875 -0.296875 C 5.242188 -0.00390625 4.625 0.140625 3.9375 0.140625 Z M 3.9375 -1.484375 C 4.28125 -1.484375 4.59375 -1.5625 4.875 -1.71875 C 5.164062 -1.875 5.394531 -2.097656 5.5625 -2.390625 C 5.738281 -2.679688 5.828125 -3.023438 5.828125 -3.421875 C 5.828125 -3.816406 5.742188 -4.160156 5.578125 -4.453125 C 5.410156 -4.742188 5.179688 -4.96875 4.890625 -5.125 C 4.609375 -5.289062 4.289062 -5.375 3.9375 -5.375 C 3.570312 -5.375 3.242188 -5.289062 2.953125 -5.125 C 2.671875 -4.96875 2.445312 -4.742188 2.28125 -4.453125 C 2.113281 -4.160156 2.03125 -3.816406 2.03125 -3.421875 C 2.03125 -3.023438 2.113281 -2.679688 2.28125 -2.390625 C 2.445312 -2.097656 2.675781 -1.875 2.96875 -1.71875 C 3.257812 -1.5625 3.582031 -1.484375 3.9375 -1.484375 Z M 3.9375 -1.484375 "/></g></g></g><g fill="#ffffff" fill-opacity="1"><g transform="translate(499.413498, 315.251183)"><g><path d="M 0.4375 -6.859375 L 2.90625 -6.859375 C 3.65625 -6.859375 4.3125 -6.71875 4.875 -6.4375 C 5.4375 -6.164062 5.867188 -5.773438 6.171875 -5.265625 C 6.484375 -4.753906 6.640625 -4.15625 6.640625 -3.46875 C 6.640625 -2.320312 6.300781 -1.457031 5.625 -0.875 C 4.957031 -0.289062 4.035156 0 2.859375 0 L 0.4375 0 Z M 3 -1.46875 C 3.59375 -1.46875 4.046875 -1.644531 4.359375 -2 C 4.679688 -2.363281 4.84375 -2.851562 4.84375 -3.46875 C 4.84375 -4.03125 4.679688 -4.488281 4.359375 -4.84375 C 4.046875 -5.207031 3.613281 -5.390625 3.0625 -5.390625 L 2.171875 -5.390625 L 2.171875 -1.46875 Z M 3 -1.46875 "/></g></g></g><g fill="#ffffff" fill-opacity="1"><g transform="translate(507.826889, 315.251183)"><g><path d="M 3.9375 0.140625 C 3.238281 0.140625 2.609375 -0.00390625 2.046875 -0.296875 C 1.492188 -0.597656 1.054688 -1.019531 0.734375 -1.5625 C 0.410156 -2.101562 0.25 -2.722656 0.25 -3.421875 C 0.25 -4.117188 0.410156 -4.738281 0.734375 -5.28125 C 1.054688 -5.832031 1.492188 -6.253906 2.046875 -6.546875 C 2.609375 -6.847656 3.238281 -7 3.9375 -7 C 4.625 -7 5.242188 -6.847656 5.796875 -6.546875 C 6.359375 -6.253906 6.800781 -5.832031 7.125 -5.28125 C 7.445312 -4.738281 7.609375 -4.117188 7.609375 -3.421875 C 7.609375 -2.722656 7.445312 -2.101562 7.125 -1.5625 C 6.800781 -1.019531 6.359375 -0.597656 5.796875 -0.296875 C 5.242188 -0.00390625 4.625 0.140625 3.9375 0.140625 Z M 3.9375 -1.484375 C 4.28125 -1.484375 4.59375 -1.5625 4.875 -1.71875 C 5.164062 -1.875 5.394531 -2.097656 5.5625 -2.390625 C 5.738281 -2.679688 5.828125 -3.023438 5.828125 -3.421875 C 5.828125 -3.816406 5.742188 -4.160156 5.578125 -4.453125 C 5.410156 -4.742188 5.179688 -4.96875 4.890625 -5.125 C 4.609375 -5.289062 4.289062 -5.375 3.9375 -5.375 C 3.570312 -5.375 3.242188 -5.289062 2.953125 -5.125 C 2.671875 -4.96875 2.445312 -4.742188 2.28125 -4.453125 C 2.113281 -4.160156 2.03125 -3.816406 2.03125 -3.421875 C 2.03125 -3.023438 2.113281 -2.679688 2.28125 -2.390625 C 2.445312 -2.097656 2.675781 -1.875 2.96875 -1.71875 C 3.257812 -1.5625 3.582031 -1.484375 3.9375 -1.484375 Z M 3.9375 -1.484375 "/></g></g></g><g fill="#ffffff" fill-opacity="1"><g transform="translate(517.212091, 315.251183)"><g/></g></g><g fill="#ffffff" fill-opacity="1"><g transform="translate(522.081782, 315.251183)"><g><path d="M 0.4375 -6.859375 L 3.921875 -6.859375 C 4.578125 -6.859375 5.09375 -6.691406 5.46875 -6.359375 C 5.851562 -6.035156 6.046875 -5.570312 6.046875 -4.96875 C 6.046875 -4.675781 5.976562 -4.40625 5.84375 -4.15625 C 5.71875 -3.90625 5.535156 -3.710938 5.296875 -3.578125 C 5.628906 -3.441406 5.875 -3.25 6.03125 -3 C 6.1875 -2.757812 6.265625 -2.441406 6.265625 -2.046875 C 6.265625 -1.628906 6.164062 -1.265625 5.96875 -0.953125 C 5.78125 -0.640625 5.519531 -0.398438 5.1875 -0.234375 C 4.851562 -0.078125 4.484375 0 4.078125 0 L 0.4375 0 Z M 3.53125 -4.140625 C 4.039062 -4.140625 4.296875 -4.378906 4.296875 -4.859375 C 4.296875 -5.128906 4.226562 -5.3125 4.09375 -5.40625 C 3.96875 -5.507812 3.769531 -5.5625 3.5 -5.5625 L 2.171875 -5.5625 L 2.171875 -4.140625 Z M 3.640625 -1.296875 C 3.929688 -1.296875 4.148438 -1.347656 4.296875 -1.453125 C 4.441406 -1.566406 4.515625 -1.765625 4.515625 -2.046875 C 4.515625 -2.328125 4.4375 -2.53125 4.28125 -2.65625 C 4.132812 -2.789062 3.90625 -2.859375 3.59375 -2.859375 L 2.171875 -2.859375 L 2.171875 -1.296875 Z M 3.640625 -1.296875 "/></g></g></g><g fill="#ffffff" fill-opacity="1"><g transform="translate(530.131969, 315.251183)"><g><path d="M 0.4375 -6.859375 L 3.515625 -6.859375 C 4.328125 -6.859375 4.957031 -6.65625 5.40625 -6.25 C 5.863281 -5.84375 6.09375 -5.257812 6.09375 -4.5 C 6.09375 -3.988281 5.976562 -3.550781 5.75 -3.1875 C 5.53125 -2.832031 5.21875 -2.566406 4.8125 -2.390625 L 6.03125 0 L 4.25 0 L 3.15625 -2.15625 L 2.171875 -2.15625 L 2.171875 0 L 0.4375 0 Z M 3.21875 -3.609375 C 3.5625 -3.609375 3.828125 -3.675781 4.015625 -3.8125 C 4.210938 -3.945312 4.3125 -4.175781 4.3125 -4.5 C 4.3125 -4.84375 4.21875 -5.078125 4.03125 -5.203125 C 3.84375 -5.328125 3.570312 -5.390625 3.21875 -5.390625 L 2.171875 -5.390625 L 2.171875 -3.609375 Z M 3.21875 -3.609375 "/></g></g></g><g fill="#ffffff" fill-opacity="1"><g transform="translate(538.005462, 315.251183)"><g><path d="M 3 -6.859375 L 4.703125 -6.859375 L 7.4375 0 L 5.65625 0 L 5.109375 -1.40625 L 2.578125 -1.40625 L 2.03125 0 L 0.25 0 Z M 4.6875 -2.75 L 3.84375 -5.046875 L 3 -2.75 Z M 4.6875 -2.75 "/></g></g></g><g fill="#ffffff" fill-opacity="1"><g transform="translate(547.223782, 315.251183)"><g><path d="M 2.578125 0.140625 C 2.148438 0.140625 1.722656 0.0976562 1.296875 0.015625 C 0.867188 -0.0546875 0.519531 -0.164062 0.25 -0.3125 L 0.25 -1.875 C 0.601562 -1.6875 0.96875 -1.546875 1.34375 -1.453125 C 1.726562 -1.367188 2.09375 -1.328125 2.4375 -1.328125 C 2.757812 -1.328125 3.003906 -1.375 3.171875 -1.46875 C 3.335938 -1.570312 3.421875 -1.710938 3.421875 -1.890625 C 3.421875 -2.023438 3.375 -2.144531 3.28125 -2.25 C 3.195312 -2.351562 3.066406 -2.445312 2.890625 -2.53125 C 2.722656 -2.613281 2.457031 -2.734375 2.09375 -2.890625 C 1.457031 -3.148438 0.992188 -3.441406 0.703125 -3.765625 C 0.421875 -4.097656 0.28125 -4.503906 0.28125 -4.984375 C 0.28125 -5.378906 0.390625 -5.726562 0.609375 -6.03125 C 0.828125 -6.34375 1.132812 -6.582031 1.53125 -6.75 C 1.925781 -6.914062 2.378906 -7 2.890625 -7 C 3.304688 -7 3.675781 -6.96875 4 -6.90625 C 4.332031 -6.84375 4.648438 -6.738281 4.953125 -6.59375 L 4.953125 -5.078125 C 4.367188 -5.378906 3.785156 -5.53125 3.203125 -5.53125 C 2.890625 -5.53125 2.640625 -5.476562 2.453125 -5.375 C 2.265625 -5.269531 2.171875 -5.125 2.171875 -4.9375 C 2.171875 -4.75 2.265625 -4.59375 2.453125 -4.46875 C 2.648438 -4.351562 3.003906 -4.195312 3.515625 -4 C 3.972656 -3.800781 4.332031 -3.609375 4.59375 -3.421875 C 4.851562 -3.242188 5.039062 -3.035156 5.15625 -2.796875 C 5.28125 -2.554688 5.34375 -2.25 5.34375 -1.875 C 5.34375 -1.238281 5.109375 -0.742188 4.640625 -0.390625 C 4.179688 -0.0351562 3.492188 0.140625 2.578125 0.140625 Z M 2.578125 0.140625 "/></g></g></g><g fill="#ffffff" fill-opacity="1"><g transform="translate(554.341415, 315.251183)"><g><path d="M 0.4375 -6.859375 L 2.171875 -6.859375 L 2.171875 0 L 0.4375 0 Z M 0.4375 -6.859375 "/></g></g></g><g fill="#ffffff" fill-opacity="1"><g transform="translate(558.494513, 315.251183)"><g><path d="M 0.4375 -6.859375 L 2.171875 -6.859375 L 2.171875 -1.46875 L 5.15625 -1.46875 L 5.15625 0 L 0.4375 0 Z M 0.4375 -6.859375 "/></g></g></g><g fill="#ffffff" fill-opacity="1"><g transform="translate(565.239128, 315.251183)"><g><path d="M 0.859375 0 C 0.691406 0 0.546875 -0.0546875 0.421875 -0.171875 C 0.304688 -0.296875 0.25 -0.441406 0.25 -0.609375 C 0.25 -0.785156 0.304688 -0.9375 0.421875 -1.0625 C 0.546875 -1.1875 0.691406 -1.25 0.859375 -1.25 C 1.035156 -1.25 1.179688 -1.1875 1.296875 -1.0625 C 1.421875 -0.9375 1.484375 -0.785156 1.484375 -0.609375 C 1.484375 -0.441406 1.421875 -0.296875 1.296875 -0.171875 C 1.179688 -0.0546875 1.035156 0 0.859375 0 Z M 0.859375 0 "/></g></g></g><g mask="url(#id26)"><g transform="matrix(1, 0, 0, 1, 257, 103)"><g clip-path="url(#id27)"><g fill="#ffffff" fill-opacity="1"><g transform="translate(0.673218, 24.249421)"><g><path d="M 9.296875 0 L 9.296875 -10.96875 L 9.15625 -10.96875 L 7.5 0 L 5.015625 0 L 3.40625 -10.96875 L 3.234375 -10.96875 L 3.234375 0 L 0.890625 0 L 0.890625 -14.1875 L 4.75 -14.1875 L 6.265625 -3.734375 L 6.421875 -3.734375 L 7.9375 -14.1875 L 11.6875 -14.1875 L 11.6875 0 Z M 9.296875 0 "/></g></g></g><g fill="#ffffff" fill-opacity="1"><g transform="translate(13.276426, 24.249421)"><g><path d="M 4.359375 0.171875 C 3.160156 0.171875 2.304688 -0.0351562 1.796875 -0.453125 C 1.296875 -0.867188 0.976562 -1.539062 0.84375 -2.46875 C 0.71875 -3.394531 0.65625 -4.9375 0.65625 -7.09375 C 0.65625 -9.25 0.71875 -10.789062 0.84375 -11.71875 C 0.976562 -12.65625 1.296875 -13.328125 1.796875 -13.734375 C 2.304688 -14.148438 3.160156 -14.359375 4.359375 -14.359375 C 5.546875 -14.359375 6.394531 -14.148438 6.90625 -13.734375 C 7.414062 -13.328125 7.734375 -12.65625 7.859375 -11.71875 C 7.992188 -10.789062 8.0625 -9.25 8.0625 -7.09375 C 8.0625 -4.9375 7.992188 -3.394531 7.859375 -2.46875 C 7.734375 -1.539062 7.414062 -0.867188 6.90625 -0.453125 C 6.394531 -0.0351562 5.546875 0.171875 4.359375 0.171875 Z M 4.359375 -2.078125 C 4.765625 -2.078125 5.039062 -2.160156 5.1875 -2.328125 C 5.34375 -2.492188 5.441406 -2.898438 5.484375 -3.546875 C 5.535156 -4.191406 5.5625 -5.375 5.5625 -7.09375 C 5.5625 -8.8125 5.535156 -9.992188 5.484375 -10.640625 C 5.441406 -11.285156 5.34375 -11.691406 5.1875 -11.859375 C 5.039062 -12.023438 4.765625 -12.109375 4.359375 -12.109375 C 3.941406 -12.109375 3.660156 -12.023438 3.515625 -11.859375 C 3.367188 -11.691406 3.269531 -11.28125 3.21875 -10.625 C 3.164062 -9.976562 3.140625 -8.800781 3.140625 -7.09375 C 3.140625 -5.382812 3.164062 -4.203125 3.21875 -3.546875 C 3.269531 -2.898438 3.367188 -2.492188 3.515625 -2.328125 C 3.660156 -2.160156 3.941406 -2.078125 4.359375 -2.078125 Z M 4.359375 -2.078125 "/></g></g></g><g fill="#ffffff" fill-opacity="1"><g transform="translate(22.001727, 24.249421)"><g><path d="M 0.890625 -14.1875 L 4.203125 -14.1875 C 5.398438 -14.1875 6.253906 -13.984375 6.765625 -13.578125 C 7.273438 -13.171875 7.59375 -12.515625 7.71875 -11.609375 C 7.851562 -10.710938 7.921875 -9.207031 7.921875 -7.09375 C 7.921875 -4.988281 7.851562 -3.484375 7.71875 -2.578125 C 7.59375 -1.671875 7.273438 -1.015625 6.765625 -0.609375 C 6.253906 -0.203125 5.398438 0 4.203125 0 L 0.890625 0 Z M 4.203125 -2.25 C 4.628906 -2.25 4.914062 -2.328125 5.0625 -2.484375 C 5.21875 -2.640625 5.320312 -3.035156 5.375 -3.671875 C 5.4375 -4.304688 5.46875 -5.445312 5.46875 -7.09375 C 5.46875 -8.738281 5.4375 -9.878906 5.375 -10.515625 C 5.320312 -11.148438 5.21875 -11.546875 5.0625 -11.703125 C 4.914062 -11.859375 4.628906 -11.9375 4.203125 -11.9375 L 3.34375 -11.9375 L 3.34375 -2.25 Z M 4.203125 -2.25 "/></g></g></g><g fill="#ffffff" fill-opacity="1"><g transform="translate(30.582638, 24.249421)"><g><path d="M 0.890625 0 L 0.890625 -14.1875 L 6.53125 -14.1875 L 6.53125 -11.9375 L 3.375 -11.9375 L 3.375 -8.296875 L 6.140625 -8.296875 L 6.140625 -6.046875 L 3.375 -6.046875 L 3.375 -2.25 L 6.53125 -2.25 L 6.53125 0 Z M 0.890625 0 "/></g></g></g><g fill="#ffffff" fill-opacity="1"><g transform="translate(37.699014, 24.249421)"><g><path d="M 0.890625 0 L 0.890625 -14.1875 L 3.375 -14.1875 L 3.375 -2.296875 L 6.234375 -2.296875 L 6.234375 0 Z M 0.890625 0 "/></g></g></g><g fill="#ffffff" fill-opacity="1"><g transform="translate(44.114069, 24.249421)"><g><path d="M 4.359375 0.171875 C 3.160156 0.171875 2.304688 -0.0351562 1.796875 -0.453125 C 1.296875 -0.867188 0.976562 -1.539062 0.84375 -2.46875 C 0.71875 -3.394531 0.65625 -4.9375 0.65625 -7.09375 C 0.65625 -9.25 0.71875 -10.789062 0.84375 -11.71875 C 0.976562 -12.65625 1.296875 -13.328125 1.796875 -13.734375 C 2.304688 -14.148438 3.160156 -14.359375 4.359375 -14.359375 C 5.546875 -14.359375 6.394531 -14.148438 6.90625 -13.734375 C 7.414062 -13.328125 7.734375 -12.65625 7.859375 -11.71875 C 7.992188 -10.789062 8.0625 -9.25 8.0625 -7.09375 C 8.0625 -4.9375 7.992188 -3.394531 7.859375 -2.46875 C 7.734375 -1.539062 7.414062 -0.867188 6.90625 -0.453125 C 6.394531 -0.0351562 5.546875 0.171875 4.359375 0.171875 Z M 4.359375 -2.078125 C 4.765625 -2.078125 5.039062 -2.160156 5.1875 -2.328125 C 5.34375 -2.492188 5.441406 -2.898438 5.484375 -3.546875 C 5.535156 -4.191406 5.5625 -5.375 5.5625 -7.09375 C 5.5625 -8.8125 5.535156 -9.992188 5.484375 -10.640625 C 5.441406 -11.285156 5.34375 -11.691406 5.1875 -11.859375 C 5.039062 -12.023438 4.765625 -12.109375 4.359375 -12.109375 C 3.941406 -12.109375 3.660156 -12.023438 3.515625 -11.859375 C 3.367188 -11.691406 3.269531 -11.28125 3.21875 -10.625 C 3.164062 -9.976562 3.140625 -8.800781 3.140625 -7.09375 C 3.140625 -5.382812 3.164062 -4.203125 3.21875 -3.546875 C 3.269531 -2.898438 3.367188 -2.492188 3.515625 -2.328125 C 3.660156 -2.160156 3.941406 -2.078125 4.359375 -2.078125 Z M 4.359375 -2.078125 "/></g></g></g><g fill="#ffffff" fill-opacity="1"><g transform="translate(52.83937, 24.249421)"><g><path d="M 0.96875 -8.015625 L 0.96875 -10.515625 L 3.53125 -10.515625 L 3.53125 -8.015625 Z M 0.96875 0 L 0.96875 -2.5 L 3.53125 -2.5 L 3.53125 0 Z M 0.96875 0 "/></g></g></g></g></g></g><g mask="url(#id28)"><g transform="matrix(1, 0, 0, 1, 257, 118)"><g clip-path="url(#id30)"><g clip-path="url(#id29)"><g fill="#ffde59" fill-opacity="1"><g transform="translate(0.673218, 35.143341)"><g><path d="M 8.921875 0 L 8.21875 -4.625 L 4.625 -4.625 L 3.90625 0 L 0.28125 0 L 3.734375 -21.03125 L 9.171875 -21.03125 L 12.65625 0 Z M 6.515625 -17.25 L 6.328125 -17.25 L 4.984375 -7.859375 L 7.859375 -7.859375 Z M 6.515625 -17.25 "/></g></g></g></g><g fill="#ffde59" fill-opacity="1"><g transform="translate(13.576593, 35.143341)"><g><path d="M 1.375 0 L 1.375 -21.03125 L 5.046875 -21.03125 L 5.046875 0 Z M 1.375 0 "/></g></g></g><g fill="#ffde59" fill-opacity="1"><g transform="translate(19.997704, 35.143341)"><g><path d="M 8.53125 0 L 6.75 -7.484375 L 5.015625 -7.484375 L 5.015625 0 L 1.3125 0 L 1.3125 -21.03125 L 7.09375 -21.03125 C 8.457031 -21.03125 9.476562 -20.773438 10.15625 -20.265625 C 10.84375 -19.765625 11.296875 -19.046875 11.515625 -18.109375 C 11.742188 -17.171875 11.859375 -15.894531 11.859375 -14.28125 C 11.859375 -12.6875 11.742188 -11.414062 11.515625 -10.46875 C 11.296875 -9.519531 10.820312 -8.800781 10.09375 -8.3125 L 12.328125 0 Z M 6.484375 -10.734375 C 7.015625 -10.734375 7.394531 -10.816406 7.625 -10.984375 C 7.863281 -11.160156 8.015625 -11.484375 8.078125 -11.953125 C 8.148438 -12.421875 8.1875 -13.175781 8.1875 -14.21875 C 8.1875 -15.257812 8.148438 -16.015625 8.078125 -16.484375 C 8.015625 -16.953125 7.863281 -17.269531 7.625 -17.4375 C 7.394531 -17.613281 7.015625 -17.703125 6.484375 -17.703125 L 5.015625 -17.703125 L 5.015625 -10.734375 Z M 6.484375 -10.734375 "/></g></g></g><g fill="#ffde59" fill-opacity="1"><g transform="translate(32.80935, 35.143341)"><g/></g></g><g fill="#ffde59" fill-opacity="1"><g transform="translate(37.395857, 35.143341)"><g><path d="M 1.3125 -21.03125 L 6.234375 -21.03125 C 8.003906 -21.03125 9.265625 -20.726562 10.015625 -20.125 C 10.773438 -19.53125 11.25 -18.566406 11.4375 -17.234375 C 11.632812 -15.898438 11.734375 -13.660156 11.734375 -10.515625 C 11.734375 -7.398438 11.632812 -5.164062 11.4375 -3.8125 C 11.25 -2.46875 10.773438 -1.492188 10.015625 -0.890625 C 9.265625 -0.296875 8.003906 0 6.234375 0 L 1.3125 0 Z M 6.234375 -3.328125 C 6.867188 -3.328125 7.296875 -3.441406 7.515625 -3.671875 C 7.742188 -3.910156 7.898438 -4.5 7.984375 -5.4375 C 8.066406 -6.375 8.109375 -8.066406 8.109375 -10.515625 C 8.109375 -12.960938 8.066406 -14.65625 7.984375 -15.59375 C 7.898438 -16.53125 7.742188 -17.113281 7.515625 -17.34375 C 7.296875 -17.582031 6.867188 -17.703125 6.234375 -17.703125 L 4.953125 -17.703125 L 4.953125 -3.328125 Z M 6.234375 -3.328125 "/></g></g></g><g fill="#ffde59" fill-opacity="1"><g transform="translate(50.115773, 35.143341)"><g><path d="M 8.53125 0 L 6.75 -7.484375 L 5.015625 -7.484375 L 5.015625 0 L 1.3125 0 L 1.3125 -21.03125 L 7.09375 -21.03125 C 8.457031 -21.03125 9.476562 -20.773438 10.15625 -20.265625 C 10.84375 -19.765625 11.296875 -19.046875 11.515625 -18.109375 C 11.742188 -17.171875 11.859375 -15.894531 11.859375 -14.28125 C 11.859375 -12.6875 11.742188 -11.414062 11.515625 -10.46875 C 11.296875 -9.519531 10.820312 -8.800781 10.09375 -8.3125 L 12.328125 0 Z M 6.484375 -10.734375 C 7.015625 -10.734375 7.394531 -10.816406 7.625 -10.984375 C 7.863281 -11.160156 8.015625 -11.484375 8.078125 -11.953125 C 8.148438 -12.421875 8.1875 -13.175781 8.1875 -14.21875 C 8.1875 -15.257812 8.148438 -16.015625 8.078125 -16.484375 C 8.015625 -16.953125 7.863281 -17.269531 7.625 -17.4375 C 7.394531 -17.613281 7.015625 -17.703125 6.484375 -17.703125 L 5.015625 -17.703125 L 5.015625 -10.734375 Z M 6.484375 -10.734375 "/></g></g></g><g fill="#ffde59" fill-opacity="1"><g transform="translate(62.927419, 35.143341)"><g><path d="M 6.453125 0.25 C 4.679688 0.25 3.421875 -0.0546875 2.671875 -0.671875 C 1.929688 -1.285156 1.460938 -2.28125 1.265625 -3.65625 C 1.078125 -5.03125 0.984375 -7.316406 0.984375 -10.515625 C 0.984375 -13.710938 1.078125 -16 1.265625 -17.375 C 1.460938 -18.757812 1.929688 -19.753906 2.671875 -20.359375 C 3.421875 -20.972656 4.679688 -21.28125 6.453125 -21.28125 C 8.222656 -21.28125 9.484375 -20.972656 10.234375 -20.359375 C 10.992188 -19.753906 11.46875 -18.757812 11.65625 -17.375 C 11.851562 -16 11.953125 -13.710938 11.953125 -10.515625 C 11.953125 -7.316406 11.851562 -5.03125 11.65625 -3.65625 C 11.46875 -2.28125 10.992188 -1.285156 10.234375 -0.671875 C 9.484375 -0.0546875 8.222656 0.25 6.453125 0.25 Z M 6.453125 -3.09375 C 7.066406 -3.09375 7.484375 -3.210938 7.703125 -3.453125 C 7.929688 -3.703125 8.078125 -4.304688 8.140625 -5.265625 C 8.210938 -6.222656 8.25 -7.972656 8.25 -10.515625 C 8.25 -13.066406 8.210938 -14.820312 8.140625 -15.78125 C 8.078125 -16.738281 7.929688 -17.335938 7.703125 -17.578125 C 7.484375 -17.828125 7.066406 -17.953125 6.453125 -17.953125 C 5.835938 -17.953125 5.421875 -17.828125 5.203125 -17.578125 C 4.992188 -17.335938 4.847656 -16.734375 4.765625 -15.765625 C 4.679688 -14.796875 4.640625 -13.046875 4.640625 -10.515625 C 4.640625 -7.992188 4.679688 -6.25 4.765625 -5.28125 C 4.847656 -4.3125 4.992188 -3.703125 5.203125 -3.453125 C 5.421875 -3.210938 5.835938 -3.09375 6.453125 -3.09375 Z M 6.453125 -3.09375 "/></g></g></g><g fill="#ffde59" fill-opacity="1"><g transform="translate(75.86137, 35.143341)"><g><path d="M 1.3125 -21.03125 L 6.96875 -21.03125 C 8.332031 -21.03125 9.359375 -20.765625 10.046875 -20.234375 C 10.742188 -19.710938 11.203125 -18.957031 11.421875 -17.96875 C 11.648438 -16.976562 11.765625 -15.644531 11.765625 -13.96875 C 11.765625 -12.363281 11.65625 -11.066406 11.4375 -10.078125 C 11.226562 -9.085938 10.773438 -8.304688 10.078125 -7.734375 C 9.390625 -7.160156 8.351562 -6.875 6.96875 -6.875 L 5.015625 -6.875 L 5.015625 0 L 1.3125 0 Z M 6.359375 -10.21875 C 6.890625 -10.21875 7.269531 -10.3125 7.5 -10.5 C 7.738281 -10.695312 7.894531 -11.039062 7.96875 -11.53125 C 8.039062 -12.019531 8.078125 -12.832031 8.078125 -13.96875 C 8.078125 -15.113281 8.039062 -15.929688 7.96875 -16.421875 C 7.894531 -16.910156 7.738281 -17.242188 7.5 -17.421875 C 7.269531 -17.609375 6.890625 -17.703125 6.359375 -17.703125 L 5.015625 -17.703125 L 5.015625 -10.21875 Z M 6.359375 -10.21875 "/></g></g></g><g fill="#ffde59" fill-opacity="1"><g transform="translate(88.122634, 35.143341)"><g><path d="M 5.46875 0.25 C 4.757812 0.25 3.984375 0.203125 3.140625 0.109375 C 2.304688 0.015625 1.597656 -0.113281 1.015625 -0.28125 L 1.015625 -3.296875 C 2.492188 -3.160156 3.644531 -3.09375 4.46875 -3.09375 C 5.039062 -3.09375 5.476562 -3.125 5.78125 -3.1875 C 6.082031 -3.257812 6.328125 -3.398438 6.515625 -3.609375 C 6.796875 -3.953125 6.9375 -4.707031 6.9375 -5.875 C 6.9375 -6.769531 6.898438 -7.398438 6.828125 -7.765625 C 6.765625 -8.128906 6.617188 -8.398438 6.390625 -8.578125 C 6.160156 -8.753906 5.753906 -8.898438 5.171875 -9.015625 L 2.71875 -9.546875 C 1.945312 -9.703125 1.414062 -10.226562 1.125 -11.125 C 0.84375 -12.019531 0.703125 -13.328125 0.703125 -15.046875 C 0.703125 -16.691406 0.90625 -17.96875 1.3125 -18.875 C 1.71875 -19.789062 2.300781 -20.421875 3.0625 -20.765625 C 3.832031 -21.109375 4.820312 -21.28125 6.03125 -21.28125 C 6.945312 -21.28125 7.773438 -21.21875 8.515625 -21.09375 C 9.253906 -20.976562 9.726562 -20.878906 9.9375 -20.796875 L 9.9375 -17.734375 C 9.726562 -17.773438 9.351562 -17.820312 8.8125 -17.875 C 8.28125 -17.925781 7.707031 -17.953125 7.09375 -17.953125 C 6.4375 -17.953125 5.929688 -17.90625 5.578125 -17.8125 C 5.222656 -17.71875 4.960938 -17.570312 4.796875 -17.375 C 4.640625 -17.164062 4.535156 -16.894531 4.484375 -16.5625 C 4.429688 -16.238281 4.40625 -15.773438 4.40625 -15.171875 C 4.40625 -14.453125 4.429688 -13.9375 4.484375 -13.625 C 4.535156 -13.3125 4.640625 -13.082031 4.796875 -12.9375 C 4.960938 -12.789062 5.226562 -12.675781 5.59375 -12.59375 L 7.703125 -12.109375 C 8.335938 -11.984375 8.863281 -11.769531 9.28125 -11.46875 C 9.695312 -11.164062 10.03125 -10.632812 10.28125 -9.875 C 10.5 -9.144531 10.609375 -8.023438 10.609375 -6.515625 C 10.609375 -4.660156 10.421875 -3.242188 10.046875 -2.265625 C 9.671875 -1.285156 9.117188 -0.617188 8.390625 -0.265625 C 7.671875 0.078125 6.695312 0.25 5.46875 0.25 Z M 5.46875 0.25 "/></g></g></g><g fill="#ffde59" fill-opacity="1"><g transform="translate(99.374859, 35.143341)"><g/></g></g><g fill="#ffde59" fill-opacity="1"><g transform="translate(103.961371, 35.143341)"><g><path d="M 1.375 0 L 1.375 -21.03125 L 5.046875 -21.03125 L 5.046875 0 Z M 1.375 0 "/></g></g></g><g fill="#ffde59" fill-opacity="1"><g transform="translate(110.382483, 35.143341)"><g><path d="M 3.09375 0 L 3.09375 -16.703125 L 0.484375 -15.59375 L 0.484375 -19.078125 L 3.9375 -21.03125 L 6.78125 -21.03125 L 6.78125 0 Z M 3.09375 0 "/></g></g></g><g fill="#ffde59" fill-opacity="1"><g transform="translate(118.546463, 35.143341)"><g><path d="M 4.5625 -3.328125 L 10.671875 -3.328125 L 10.671875 0 L 0.890625 0 L 0.890625 -2.5 C 0.890625 -4.5625 0.914062 -6.019531 0.96875 -6.875 C 1.03125 -7.738281 1.1875 -8.429688 1.4375 -8.953125 C 1.695312 -9.484375 2.144531 -9.953125 2.78125 -10.359375 L 5.625 -12.234375 C 5.988281 -12.472656 6.265625 -12.6875 6.453125 -12.875 C 6.640625 -13.070312 6.773438 -13.347656 6.859375 -13.703125 C 6.953125 -14.066406 7 -14.566406 7 -15.203125 C 7 -16.054688 6.9375 -16.671875 6.8125 -17.046875 C 6.695312 -17.421875 6.476562 -17.664062 6.15625 -17.78125 C 5.84375 -17.894531 5.332031 -17.953125 4.625 -17.953125 C 3.78125 -17.953125 2.601562 -17.878906 1.09375 -17.734375 L 1.09375 -20.828125 C 1.625 -20.960938 2.3125 -21.070312 3.15625 -21.15625 C 4.007812 -21.238281 4.820312 -21.28125 5.59375 -21.28125 C 6.695312 -21.28125 7.59375 -21.160156 8.28125 -20.921875 C 8.976562 -20.691406 9.550781 -20.15625 10 -19.3125 C 10.445312 -18.46875 10.671875 -17.1875 10.671875 -15.46875 C 10.671875 -14.226562 10.570312 -13.234375 10.375 -12.484375 C 10.1875 -11.742188 9.9375 -11.1875 9.625 -10.8125 C 9.320312 -10.4375 8.925781 -10.082031 8.4375 -9.75 L 5.46875 -7.796875 C 5.269531 -7.671875 5.113281 -7.550781 5 -7.4375 C 4.882812 -7.332031 4.796875 -7.1875 4.734375 -7 C 4.660156 -6.78125 4.613281 -6.40625 4.59375 -5.875 C 4.570312 -5.34375 4.5625 -4.6875 4.5625 -3.90625 Z M 4.5625 -3.328125 "/></g></g></g></g></g></g></svg>